<ttFont>
          <CharString index="0">
            26 6 -6 -26 hvcurveto
            -144 vlineto
            -26 -6 -6 -26 vhcurveto
            -65 103 -105 callsubr
            181 return
          </CharString>
          <CharString index="1">
            351 callgsubr
            37 hlineto
            24 478 callgsubr
            -65 50 -90 -296 14 callgsubr
            108 -90 -96 vlineto
            -24 -5 -5 -23 345 callsubr
            return
          </CharString>
          <CharString index="2">
            -90 -366 hlineto
            -57 27 -28 65 vhcurveto
            91 57 callgsubr
            -23 -6 5 24 hvcurveto
            return
          </CharString>
          <CharString index="3">
            -103 callgsubr
            29 68 return
          </CharString>
          <CharString index="4">
            rmoveto
            -75 callsubr
            23 vhcurveto
            57 hlineto
            return
          </CharString>
          <CharString index="5">
            -24 -8 -8 -24 -89 callsubr
            return
          </CharString>
          <CharString index="6">
            90 -101 callgsubr
          </CharString>
          <CharString index="7">
            hlineto
            -94 callgsubr
            return
          </CharString>
          <CharString index="8">
            -94 callsubr
            101 vlineto
            25 -54 callsubr
            68 70 -68 -94 callsubr
            -44 callsubr
            return
          </CharString>
          <CharString index="9">
            -52 callgsubr
            -51 21 -28 51 -5 vhcurveto
            -79 -142 -37 callsubr
            -79 143 rlineto
            46 7 19 28 48 -6 callsubr
            return
          </CharString>
          <CharString index="10">
            220 callsubr
            hlineto
            -69 -31 -28 -59 hvcurveto
            -182 vlineto
            -61 29 -28 67 vhcurveto
            90 -91 callsubr
            389 return
          </CharString>
          <CharString index="11">
            -84 vlineto
            -20 callgsubr
            64 vhcurveto
            55 253 callsubr
            -23 hvcurveto
            -103 -44 callgsubr
            -39 121 callsubr
            67 -90 -79 vlineto
            return
          </CharString>
          <CharString index="12">
            -61 29 -83 callgsubr
            return
          </CharString>
          <CharString index="13">
            -57 callsubr
            25 hvcurveto
            return
          </CharString>
          <CharString index="14">
            -50 callgsubr
            -24 hvcurveto
            return
          </CharString>
          <CharString index="15">
            5 25 hvcurveto
            return
          </CharString>
          <CharString index="16">
            hlineto
            67 -63 callgsubr
            return
          </CharString>
          <CharString index="17">
            -87 callsubr
            -308 vlineto
            -20 callgsubr
            return
          </CharString>
          <CharString index="18">
            vhcurveto
            -38 -82 callsubr
            return
          </CharString>
          <CharString index="19">
            rmoveto
            185 callsubr
            -45 -5 callsubr
            6 5 24 vhcurveto
            75 hlineto
            return
          </CharString>
          <CharString index="20">
            -65 callgsubr
            -60 -30 -27 -62 hvcurveto
            return
          </CharString>
          <CharString index="21">
            vlineto
            -95 callsubr
            return
          </CharString>
          <CharString index="22">
            -72 -70 72 -34 callsubr
            70 -72 return
          </CharString>
          <CharString index="23">
            437 callgsubr
            90 -41 callsubr
          </CharString>
          <CharString index="24">
            -59 callgsubr
            vlineto
            return
          </CharString>
          <CharString index="25">
            hlineto
            -72 callsubr
            return
          </CharString>
          <CharString index="26">
            vlineto
            -77 callgsubr
            return
          </CharString>
          <CharString index="27">
            rmoveto
            -24 -6 -6 -24 vhcurveto
            -55 hlineto
            -24 -5 6 24 hvcurveto
            286 23 callsubr
            55 hlineto
            24 6 -6 -24 hvcurveto
            -111 101 rmoveto
            -64 188 callsubr
            64 vhcurveto
            107 hlineto
            65 28 31 57 hvcurveto
            311 vlineto
            58 420 callgsubr
          </CharString>
          <CharString index="28">
            -72 callgsubr
            -138 -100 callsubr
            129 27 vlineto
            64 -39 callsubr
            return
          </CharString>
          <CharString index="29">
            -19 callgsubr
            -89 90 return
          </CharString>
          <CharString index="30">
            vlineto
            -2 callgsubr
            return
          </CharString>
          <CharString index="31">
            11 -99 callgsubr
          </CharString>
          <CharString index="32">
            -32 callgsubr
            205 -77 callsubr
            return
          </CharString>
          <CharString index="33">
            hlineto
            -23 -6 5 23 hvcurveto
            return
          </CharString>
          <CharString index="34">
            3 8 8 hvcurveto
            return
          </CharString>
          <CharString index="35">
            -23 -102 callgsubr
            return
          </CharString>
          <CharString index="36">
            127 34 callgsubr
            -5 5 23 hvcurveto
            60 -79 callgsubr
            return
          </CharString>
          <CharString index="37">
            rmoveto
            118 callgsubr
            97 hlineto
            166 callgsubr
            180 vlineto
            57 -28 31 -64 vhcurveto
            -73 -86 callgsubr
            139 -36 callsubr
            42 hlineto
            24 6 369 callsubr
            -28 31 -65 vhcurveto
            -98 196 callsubr
            -165 vlineto
            -57 27 -32 64 vhcurveto
            74 37 callgsubr
            return
          </CharString>
          <CharString index="38">
            -5 -24 vhcurveto
            -29 -68 57 hlineto
            65 27 28 57 hvcurveto
            230 288 callgsubr
          </CharString>
          <CharString index="39">
            -72 callgsubr
            -116 -99 callsubr
            161 callgsubr
            -39 319 callgsubr
            -57 hvcurveto
            return
          </CharString>
          <CharString index="40">
            vlineto
            -30 callgsubr
            return
          </CharString>
          <CharString index="41">
            57 -27 30 -65 242 callsubr
            24 vhcurveto
            33 -93 callsubr
            return
          </CharString>
          <CharString index="42">
            11 -73 callsubr
            return
          </CharString>
          <CharString index="43">
            vlineto
            7 callsubr
            return
          </CharString>
          <CharString index="44">
            rmoveto
            -58 callsubr
            return
          </CharString>
          <CharString index="45">
            -64 444 callsubr
            64 vhcurveto
            74 hlineto
            24 6 -5 -24 hvcurveto
            -64 vlineto
            -24 -6 18 callsubr
            return
          </CharString>
          <CharString index="46">
            -37 callgsubr
            282 -56 callsubr
            return
          </CharString>
          <CharString index="47">
            vlineto
            -61 callsubr
            return
          </CharString>
          <CharString index="48">
            -39 callgsubr
            415 rmoveto
            -39 vlineto
            -49 callsubr
            return
          </CharString>
          <CharString index="49">
            -23 -6 -48 callgsubr
            return
          </CharString>
          <CharString index="50">
            hlineto
            -1 callsubr
            return
          </CharString>
          <CharString index="51">
            -77 callsubr
            23 vhcurveto
            return
          </CharString>
          <CharString index="52">
            -27 17 callsubr
            return
          </CharString>
          <CharString index="53">
            5 5 24 vhcurveto
            return
          </CharString>
          <CharString index="54">
            -21 callgsubr
            -138 hlineto
            return
          </CharString>
          <CharString index="55">
            28 61 hvcurveto
            return
          </CharString>
          <CharString index="56">
            rmoveto
            83 95 -83 hlineto
            return
          </CharString>
          <CharString index="57">
            52 330 57 -330 rlineto
            37 -218 rmoveto
            91 hlineto
            -119 626 rlineto
            -131 hlineto
            -111 -626 rlineto
            90 hlineto
            23 145 rlineto
            132 hlineto
            endchar
          </CharString>
          <CharString index="58">
            27 -9 -22 12 -31 hhcurveto
            -36 hlineto
            -62 -28 -31 -58 hvcurveto
            -311 -38 callsubr
            return
          </CharString>
          <CharString index="59">
            27 28 57 hvcurveto
            return
          </CharString>
          <CharString index="60">
            rmoveto
            -380 vlineto
            73 callsubr
            -400 -38 callsubr
            -39 90 488 vlineto
            return
          </CharString>
          <CharString index="61">
            hlineto
            -26 -5 5 26 hvcurveto
            139 61 vlineto
            -24 callgsubr
            return
          </CharString>
          <CharString index="62">
            -68 callsubr
            -154 390 callgsubr
            return
          </CharString>
          <CharString index="63">
            123 -79 callgsubr
            9 -93 callsubr
            -43 60 58 vlineto
            57 return
          </CharString>
          <CharString index="64">
            10 callgsubr
            -31 hhcurveto
            return
          </CharString>
          <CharString index="65">
            28 -31 62 vhcurveto
            36 hlineto
            31 22 12 27 9 hvcurveto
            return
          </CharString>
          <CharString index="66">
            68 vlineto
            38 callsubr
            endchar
          </CharString>
          <CharString index="67">
            -30 callsubr
            181 268 callgsubr
            79 169 callsubr
            -378 -127 rmoveto
            127 161 275 callsubr
            -267 -251 102 callsubr
            return
          </CharString>
          <CharString index="68">
            -19 callsubr
            -6 7 vhcurveto
            return
          </CharString>
          <CharString index="69">
            vlineto
            -57 -42 callsubr
            return
          </CharString>
          <CharString index="70">
            rlineto
            86 hlineto
            63 124 62 -124 rlineto
            86 hlineto
            return
          </CharString>
          <CharString index="71">
            -77 callsubr
            24 vhcurveto
            return
          </CharString>
          <CharString index="72">
            -61 29 -28 106 callgsubr
            return
          </CharString>
          <CharString index="73">
            -556 10 callsubr
            return
          </CharString>
          <CharString index="74">
            -62 29 -27 67 vhcurveto
            89 415 callgsubr
            return
          </CharString>
          <CharString index="75">
            -56 -29 callgsubr
            return
          </CharString>
          <CharString index="76">
            vhcurveto
            -38 -94 callsubr
            return
          </CharString>
          <CharString index="77">
            -56 callgsubr
            -6 5 25 hvcurveto
            return
          </CharString>
          <CharString index="78">
            rmoveto
            -524 vlineto
            -24 -5 -5 -25 vhcurveto
            -57 -86 callgsubr
            524 -91 -538 248 callsubr
            111 hlineto
            166 callgsubr
            538 vlineto
            endchar
          </CharString>
          <CharString index="79">
            29 -36 callgsubr
            return
          </CharString>
          <CharString index="80">
            -86 callsubr
            114 -90 -103 vlineto
            -25 -6 -5 -24 vhcurveto
            -30 -84 callgsubr
            return
          </CharString>
          <CharString index="81">
            -124 -99 hlineto
            -61 callgsubr
            return
          </CharString>
          <CharString index="82">
            41 -20 callsubr
            return
          </CharString>
          <CharString index="83">
            -57 callsubr
            24 hvcurveto
            return
          </CharString>
          <CharString index="84">
            115 callgsubr
            160 hlineto
            16 12 3 8 8 hvcurveto
            -89 90 -83 callsubr
            endchar
          </CharString>
          <CharString index="85">
            -68 57 hlineto
            65 -54 callgsubr
            return
          </CharString>
          <CharString index="86">
            30 -28 60 vhcurveto
            return
          </CharString>
          <CharString index="87">
            -15 callsubr
            -90 return
          </CharString>
          <CharString index="88">
            24 callgsubr
            131 33 callgsubr
            return
          </CharString>
          <CharString index="89">
            rmoveto
            61 hlineto
            -24 callgsubr
            196 70 -498 234 callgsubr
            474 524 rmoveto
            -64 40 callsubr
            5 5 23 vhcurveto
            37 hlineto
            24 478 callgsubr
            -65 50 -90 -164 240 callsubr
            28 68 -52 173 callsubr
            91 208 callgsubr
            108 -90 -96 vlineto
            -24 -6 -5 -22 345 callsubr
            172 -2 rmoveto
            -626 89 556 73 70 vlineto
            endchar
          </CharString>
          <CharString index="90">
            182 -69 callgsubr
            return
          </CharString>
          <CharString index="91">
            52 -28 -24 16 -72 hhcurveto
            -51 -72 32 hlineto
            42 14 -16 -38 20 hvcurveto
            59 112 callgsubr
            return
          </CharString>
          <CharString index="92">
            12 callgsubr
            -23 vhcurveto
            return
          </CharString>
          <CharString index="93">
            -24 -5 -92 callsubr
            90 vlineto
            25 -54 callsubr
            68 70 -68 -94 callsubr
            106 -79 callgsubr
            9 -93 callsubr
            -43 60 58 vlineto
            57 161 callgsubr
            -39 319 callgsubr
            -57 147 callsubr
            return
          </CharString>
          <CharString index="94">
            -60 callgsubr
            205 vlineto
            120 callgsubr
            return
          </CharString>
          <CharString index="95">
            -96 callsubr
            8 callsubr
            92 hlineto
            65 27 28 57 hvcurveto
            356 callsubr
          </CharString>
          <CharString index="96">
            rmoveto
            33 callsubr
            378 90 vlineto
            return
          </CharString>
          <CharString index="97">
            -24 -6 -5 -23 vhcurveto
            return
          </CharString>
          <CharString index="98">
            -61 30 -28 60 vhcurveto
            -35 callgsubr
          </CharString>
          <CharString index="99">
            126 callgsubr
            -68 212 callsubr
            return
          </CharString>
          <CharString index="100">
            -70 188 hlineto
            18 callgsubr
            return
          </CharString>
          <CharString index="101">
            vvcurveto
            -71 callsubr
            return
          </CharString>
          <CharString index="102">
            -100 callsubr
            339 callsubr
            return
          </CharString>
          <CharString index="103">
            vlineto
            -61 29 -28 67 vhcurveto
            89 -91 callsubr
            return
          </CharString>
          <CharString index="104">
            -72 callgsubr
            -134 -100 callsubr
            148 40 vlineto
            65 27 29 58 hvcurveto
            134 445 callgsubr
            -26 -27 -57 hvcurveto
            -58 60 43 vlineto
            24 5 426 callgsubr
            -107 42 callsubr
            -361 197 callgsubr
            -144 -81 callsubr
            159 84 -159 vlineto
            -61 153 callgsubr
            return
          </CharString>
          <CharString index="105">
            29 callgsubr
            -56 24 -28 55 -4 vhcurveto
            -79 -142 109 callsubr
            53 5 23 28 55 490 callgsubr
            hlineto
            endchar
          </CharString>
          <CharString index="106">
            -24 -5 5 return
          </CharString>
          <CharString index="107">
            rmoveto
            185 callsubr
            -55 -84 callgsubr
            55 -50 callgsubr
            -25 hvcurveto
            return
          </CharString>
          <CharString index="108">
            rmoveto
            151 callgsubr
            150 callsubr
            return
          </CharString>
          <CharString index="109">
            12 callsubr
            -30 vvcurveto
            return
          </CharString>
          <CharString index="110">
            -14 -25 -2 hvcurveto
            -3 hlineto
            25 return
          </CharString>
          <CharString index="111">
            -6 -9 callgsubr
            return
          </CharString>
          <CharString index="112">
            -378 -103 callsubr
            return
          </CharString>
          <CharString index="113">
            -33 -17 318 callgsubr
            -18 14 -33 hhcurveto
            -104 415 callsubr
            -226 411 callgsubr
            33 18 15 24 2 hvcurveto
            3 hlineto
            -24 2 17 -15 33 hhcurveto
            103 hlineto
            59 156 callsubr
            226 vlineto
            62 -30 27 -59 vhcurveto
            return
          </CharString>
          <CharString index="114">
            25 6 5 return
          </CharString>
          <CharString index="115">
            -20 callgsubr
            65 vhcurveto
            return
          </CharString>
          <CharString index="116">
            -24 -8 -8 49 callgsubr
            return
          </CharString>
          <CharString index="117">
            90 -59 callgsubr
            return
          </CharString>
          <CharString index="118">
            7 hlineto
            60 17 30 49 hvcurveto
            23 -77 -14 vlineto
            -20 -5 -4 -14 vhcurveto
            -23 -29 38 -45 hhcurveto
            -9 hlineto
            -59 -19 -30 -50 hvcurveto
            -22 78 return
          </CharString>
          <CharString index="119">
            24 166 callsubr
            -24 -3 -15 -15 return
          </CharString>
          <CharString index="120">
            -70 249 -348 vlineto
            -102 callsubr
            179 241 callgsubr
            -202 391 callgsubr
            return
          </CharString>
          <CharString index="121" raw="1">
            ce1ef771 1d0b  
          </CharString>
          <CharString index="122">
            8 callsubr
            123 208 callgsubr
            117 -90 -105 vlineto
            -24 -6 -5 -22 vhcurveto
            -70 248 callgsubr
            459 129 -176 400 callgsubr
            -70 69 hlineto
            64 381 callgsubr
            190 64 vlineto
            endchar
          </CharString>
          <CharString index="123">
            48 callgsubr
            -65 -27 -27 -58 hvcurveto
            230 callsubr
            60 vhcurveto
            return
          </CharString>
          <CharString index="124">
            -27 -58 hvcurveto
            return
          </CharString>
          <CharString index="125">
            -9 callgsubr
            -74 55 -90 -198 90 75 102 hlineto
            105 callgsubr
            return
          </CharString>
          <CharString index="126">
            rmoveto
            95 132 rlineto
            -93 hlineto
            -53 -81 -52 81 rlineto
            -94 hlineto
            96 -132 rlineto
            return
          </CharString>
          <CharString index="127">
            -47 callgsubr
            endchar
          </CharString>
          <CharString index="128">
            339 callgsubr
            -191 448 callsubr
            170 134 callgsubr
            213 73 -192 hlineto
            -26 -5 5 26 hvcurveto
            127 452 callsubr
            213 vlineto
            13 -3 8 -5 5 vhcurveto
            return
          </CharString>
          <CharString index="129">
            160 -27 callgsubr
          </CharString>
          <CharString index="130">
            197 callsubr
            24 vhcurveto
            return
          </CharString>
          <CharString index="131">
            32 callgsubr
            95 hlineto
            166 callgsubr
            66 -89 -52 42 callsubr
            -43 210 callsubr
            43 -93 callsubr
            -52 return
          </CharString>
          <CharString index="132">
            rmoveto
            317 callgsubr
            -488 90 380 vlineto
            26 10 9 23 vhcurveto
            35 -93 callsubr
            -386 90 399 261 callsubr
          </CharString>
          <CharString index="133">
            -50 callgsubr
            -25 hvcurveto
            return
          </CharString>
          <CharString index="134">
            hlineto
            -72 callgsubr
            -134 -100 callsubr
            104 402 callsubr
            178 406 callsubr
            5 5 24 vhcurveto
            6 95 callsubr
            -151 -44 callgsubr
            -214 hlineto
            11 11 5 17 25 vvcurveto
            125 vlineto
            13 -3 8 -5 5 vhcurveto
            69 70 -402 -70 219 hlineto
            339 callgsubr
            -140 116 callgsubr
            99 -105 callsubr
            185 282 -115 vlineto
            -61 153 callgsubr
            return
          </CharString>
          <CharString index="135">
            -5 -28 284 callsubr
            -23 return
          </CharString>
          <CharString index="136">
            -31 15 -16 24 284 callgsubr
            -24 -2 -15 -15 -31 vvcurveto
            return
          </CharString>
          <CharString index="137">
            69 callsubr
            35 hlineto
            return
          </CharString>
          <CharString index="138">
            14 -16 207 callsubr
            -2 -14 -15 -31 vvcurveto
            return
          </CharString>
          <CharString index="139">
            251 549 rmoveto
            52 -23 25 -55 vhcurveto
            -66 hlineto
            -55 -23 -25 -52 hvcurveto
            -184 vlineto
            -51 23 -26 55 vhcurveto
            66 hlineto
            55 23 26 51 hvcurveto
            361 -104 rmoveto
            51 -23 26 -54 vhcurveto
            -67 hlineto
            -54 -24 -26 -51 hvcurveto
            -184 vlineto
            -51 24 -26 54 vhcurveto
            67 hlineto
            54 23 26 51 hvcurveto
            -435 300 rmoveto
            -23 -4 -5 -22 vhcurveto
            -22 hlineto
            -23 -3 5 23 hvcurveto
            161 vlineto
            22 3 5 23 vhcurveto
            22 hlineto
            22 4 -5 -22 hvcurveto
            361 -450 rmoveto
            -22 -3 -5 -23 vhcurveto
            -21 hlineto
            -23 -4 5 22 hvcurveto
            162 vlineto
            22 4 5 23 vhcurveto
            21 hlineto
            23 3 -5 -22 hvcurveto
            -109 376 rmoveto
            -291 -626 rlineto
            74 hlineto
            292 626 rlineto
            return
          </CharString>
          <CharString index="140">
            -25 -6 -5 -23 vhcurveto
            -31 -100 callsubr
            return
          </CharString>
          <CharString index="141">
            -29 callgsubr
            -49 -108 vlineto
            -100 callgsubr
            return
          </CharString>
          <CharString index="142">
            -82 callsubr
            86 -78 callgsubr
            -172 485 callgsubr
            102 246 callgsubr
            return
          </CharString>
          <CharString index="143">
            180 -4 callgsubr
            378 98 vlineto
            return
          </CharString>
          <CharString index="144">
            hlineto
            -72 callgsubr
            -134 -100 callsubr
            158 402 callsubr
            124 406 callsubr
            6 5 23 vhcurveto
            6 95 callsubr
            -97 -44 callgsubr
            -186 hlineto
            -87 callsubr
            -232 vlineto
            -20 callgsubr
            64 vhcurveto
            87 73 -59 -74 callsubr
            206 -56 callsubr
            32 220 callgsubr
            -122 90 122 417 callsubr
            60 -169 hlineto
            -61 32 -28 65 vhcurveto
            return
          </CharString>
          <CharString index="145">
            59 -31 26 -57 vhcurveto
            return
          </CharString>
          <CharString index="146">
            vlineto
            -71 callgsubr
          </CharString>
          <CharString index="147">
            -27 -30 -57 hvcurveto
            -89 90 77 vlineto
            24 return
          </CharString>
          <CharString index="148">
            rmoveto
            -25 48 callsubr
            25 hvcurveto
            return
          </CharString>
          <CharString index="149">
            vlineto
            -18 callgsubr
            return
          </CharString>
          <CharString index="150">
            -210 -88 callgsubr
            93 -327 291 callsubr
            return
          </CharString>
          <CharString index="151">
            vlineto
            -9 callsubr
          </CharString>
          <CharString index="152">
            -6 74 callsubr
            return
          </CharString>
          <CharString index="153">
            hlineto
            185 callsubr
            return
          </CharString>
          <CharString index="154">
            45 callgsubr
            -89 90 return
          </CharString>
          <CharString index="155">
            -6 105 callsubr
            return
          </CharString>
          <CharString index="156">
            vhcurveto
            -37 -86 callgsubr
            return
          </CharString>
          <CharString index="157">
            -24 -8 -8 271 callsubr
            170 callsubr
            8 8 hvcurveto
            return
          </CharString>
          <CharString index="158">
            11 callgsubr
            560 408 rmoveto
            70 -830 425 callgsubr
            104 hlineto
            24 20 8 16 13 hvcurveto
            -17 14 23 -7 32 hhcurveto
            154 callgsubr
          </CharString>
          <CharString index="159">
            -94 callsubr
            109 -79 callgsubr
            61 71 -61 hlineto
            -24 -5 455 callgsubr
            return
          </CharString>
          <CharString index="160">
            rmoveto
            -697 -70 188 hlineto
            -89 callgsubr
            236 -339 hlineto
            -23 callgsubr
            -125 87 -101 callgsubr
          </CharString>
          <CharString index="161">
            rmoveto
            -72 callgsubr
            -139 -82 callsubr
            204 3 callgsubr
            58 vlineto
            13 -3 9 -5 7 vhcurveto
            93 hlineto
            160 callsubr
            -872 -70 496 hlineto
            37 4 -4 -26 hvcurveto
            -45 42 callsubr
            -263 -274 hlineto
            33 callsubr
            274 -90 -285 324 callsubr
            84 -215 vlineto
            39 callgsubr
          </CharString>
          <CharString index="162">
            261 callgsubr
            271 -90 -63 277 callgsubr
            176 -64 callgsubr
            endchar
          </CharString>
          <CharString index="163">
            60 callsubr
            90 return
          </CharString>
          <CharString index="164">
            -68 callsubr
            -67 -260 vlineto
            -65 -27 -28 -57 395 callgsubr
            -17 341 callgsubr
            return
          </CharString>
          <CharString index="165">
            rmoveto
            -273 246 callsubr
            85 310 vlineto
            -469 -408 1 callsubr
            593 478 rmoveto
            -817 181 callsubr
            67 hlineto
            152 callgsubr
            -312 vlineto
            -20 callgsubr
            64 vhcurveto
            57 73 -29 99 callgsubr
          </CharString>
          <CharString index="166">
            rmoveto
            205 callgsubr
            79 281 callsubr
            357 286 rmoveto
            -162 -215 -105 129 hlineto
            -66 callsubr
            -117 268 callsubr
            -104 -4 callsubr
            118 105 -98 vlineto
            -276 -298 rlineto
            101 hlineto
            175 299 callgsubr
            98 callgsubr
          </CharString>
          <CharString index="167">
            -49 callsubr
            -39 return
          </CharString>
          <CharString index="168">
            rmoveto
            53 -81 rlineto
            93 hlineto
            -95 132 rlineto
            -101 hlineto
            -96 -132 rlineto
            94 hlineto
            return
          </CharString>
          <CharString index="169">
            280 callgsubr
            119 callsubr
            23 vhcurveto
            34 95 callsubr
            return
          </CharString>
          <CharString index="170">
            rmoveto
            -266 417 callgsubr
            34 252 callgsubr
            135 478 callsubr
            -70 -93 hlineto
            -64 -27 -27 -55 hvcurveto
            -58 vlineto
            -55 27 -27 64 vhcurveto
            74 hlineto
            24 6 -4 -24 hvcurveto
            -58 207 callgsubr
            -74 49 -90 -199 90 85 102 hlineto
            65 27 27 55 hvcurveto
            78 vlineto
            7 0 6 -1 6 vhcurveto
            101 -79 hlineto
            -234 -237 rlineto
            96 hlineto
            138 146 rlineto
            -94 -101 callsubr
          </CharString>
          <CharString index="171">
            185 callsubr
            -27 hlineto
            -23 303 callgsubr
            return
          </CharString>
          <CharString index="172">
            rmoveto
            88 -93 callsubr
            -170 42 callsubr
            -88 hlineto
            143 -325 rmoveto
            97 hlineto
            -99 255 rlineto
            47 8 20 29 50 vvcurveto
            196 481 callgsubr
            -205 -626 90 253 49 hlineto
            endchar
          </CharString>
          <CharString index="173">
            rmoveto
            205 223 rlineto
            106 vlineto
            -306 -329 rlineto
            81 289 rmoveto
            205 callgsubr
            79 281 callsubr
            90 71 rmoveto
            129 vlineto
            -66 callsubr
            -117 268 callsubr
            -104 -4 callsubr
            118 135 71 vlineto
            endchar
          </CharString>
          <CharString index="174">
            -103 callsubr
            335 214 rmoveto
            return
          </CharString>
          <CharString index="175">
            vlineto
            -91 callgsubr
            return
          </CharString>
          <CharString index="176">
            474 callgsubr
            284 -36 callsubr
            return
          </CharString>
          <CharString index="177">
            -24 callsubr
            422 -79 callgsubr
            return
          </CharString>
          <CharString index="178">
            144 73 -144 193 174 73 -265 -626 272 73 return
          </CharString>
          <CharString index="179">
            -52 callsubr
            308 vlineto
            55 -26 26 -52 3 vhcurveto
            75 vlineto
            endchar
          </CharString>
          <CharString index="180">
            176 callgsubr
            247 callsubr
            386 -90 return
          </CharString>
          <CharString index="181">
            -92 callsubr
            204 -64 callsubr
            return
          </CharString>
          <CharString index="182">
            169 callgsubr
            -197 90 197 23 callsubr
            60 -412 90 556 67 hlineto
            endchar
          </CharString>
          <CharString index="183">
            362 callgsubr
            -367 -184 rmoveto
            -25 -6 -5 -23 vhcurveto
            -27 349 callgsubr
            57 hlineto
            return
          </CharString>
          <CharString index="184">
            27 -9 -22 12 -31 hhcurveto
            -36 416 callsubr
            -304 vlineto
            -58 -42 callsubr
            -83 vlineto
            -23 -6 -6 -24 vhcurveto
            -141 -71 167 hlineto
            65 29 30 58 hvcurveto
            538 return
          </CharString>
          <CharString index="185">
            -687 85 callgsubr
          </CharString>
          <CharString index="186">
            vhcurveto
            36 68 -60 -29 callgsubr
            return
          </CharString>
          <CharString index="187">
            rmoveto
            -105 121 105 hlineto
            -195 -323 46 callgsubr
            -45 413 callsubr
            24 6 5 24 vhcurveto
            75 hlineto
            357 261 rmoveto
            -602 -70 245 -121 -99 hlineto
            378 callsubr
            105 -123 vlineto
            -276 -298 rlineto
            101 hlineto
            175 299 callgsubr
            98 callgsubr
          </CharString>
          <CharString index="188">
            rmoveto
            -102 callsubr
            return
          </CharString>
          <CharString index="189">
            -165 -242 rlineto
            102 hlineto
            135 198 rlineto
            return
          </CharString>
          <CharString index="190">
            33 callgsubr
            -7 7 vhcurveto
            94 hlineto
            return
          </CharString>
          <CharString index="191">
            vhcurveto
            -37 -100 callsubr
            return
          </CharString>
          <CharString index="192">
            -553 90 callgsubr
          </CharString>
          <CharString index="193">
            27 165 556 rmoveto
            118 -112 hlineto
            -50 8 -35 0 vhcurveto
            0 -21 47 -30 42 vhcurveto
            -99 -17 rmoveto
            193 callsubr
            88 -130 rlineto
            -97 -82 callsubr
            return
          </CharString>
          <CharString index="194">
            rmoveto
            -439 vlineto
            -128 439 rlineto
            -95 -626 83 452 hlineto
            132 -452 rlineto
            91 626 hlineto
            return
          </CharString>
          <CharString index="195">
            rmoveto
            32 callgsubr
            return
          </CharString>
          <CharString index="196">
            -376 hlineto
            -26 callgsubr
            return
          </CharString>
          <CharString index="197">
            vhcurveto
            87 73 -59 417 callgsubr
            281 vlineto
            25 -54 callsubr
            31 hlineto
            25 5 -6 -24 hvcurveto
            -197 90 197 23 callsubr
            60 -412 90 556 66 hlineto
            endchar
          </CharString>
          <CharString index="198">
            -70 66 147 callgsubr
            return
          </CharString>
          <CharString index="199">
            -15 250 373 callgsubr
            -53 -86 callgsubr
            186 83 vlineto
            24 6 -6 -23 hvcurveto
            -113 101 rmoveto
            164 462 callgsubr
            -94 89 108 249 callgsubr
            -103 hlineto
            -65 79 callgsubr
            65 vhcurveto
            106 hlineto
            171 callgsubr
            183 vlineto
            58 405 callgsubr
            endchar
          </CharString>
          <CharString index="200">
            152 callgsubr
            -98 callgsubr
            return
          </CharString>
          <CharString index="201">
            214 callsubr
            -450 vlineto
            return
          </CharString>
          <CharString index="202">
            253 callsubr
            -24 hvcurveto
            return
          </CharString>
          <CharString index="203">
            rmoveto
            -52 callgsubr
            return
          </CharString>
          <CharString index="204">
            194 callgsubr
            -80 175 callgsubr
            vlineto
            endchar
          </CharString>
          <CharString index="205">
            rmoveto
            -32 callgsubr
            119 321 callsubr
            -144 vlineto
            -62 29 -27 106 callgsubr
            30 27 62 hvcurveto
            159 82 -170 vlineto
            -277 -298 rlineto
            101 69 callgsubr
          </CharString>
          <CharString index="206">
            vlineto
            23 6 5 23 vhcurveto
            return
          </CharString>
          <CharString index="207">
            103 callgsubr
            381 406 rmoveto
            -597 -70 246 -74 -92 hlineto
            113 callsubr
            99 144 callsubr
          </CharString>
          <CharString index="208">
            403 callgsubr
            -61 247 callgsubr
            -84 -43 vlineto
            -58 29 -31 65 vhcurveto
            return
          </CharString>
          <CharString index="209">
            rmoveto
            -32 callgsubr
            152 -56 callsubr
            57 hlineto
            return
          </CharString>
          <CharString index="210">
            137 callgsubr
            141 rlineto
            return
          </CharString>
          <CharString index="211">
            -23 -6 4 23 hvcurveto
            22 vlineto
            23 6 4 23 vhcurveto
            63 return
          </CharString>
          <CharString index="212">
            -5 -24 304 callsubr
            return
          </CharString>
          <CharString index="213">
            -70 219 hlineto
            -107 callsubr
            280 -193 -60 callsubr
            return
          </CharString>
          <CharString index="214">
            rmoveto
            222 241 rlineto
            106 vlineto
            -323 -347 rlineto
            104 468 rmoveto
            -148 182 callgsubr
            119 -56 callsubr
            -119 -159 rmoveto
            -62 29 -27 106 callgsubr
            30 27 62 hvcurveto
            159 128 70 -303 493 callsubr
            449 70 vlineto
            endchar
          </CharString>
          <CharString index="215">
            114 callsubr
            -57 hlineto
            -65 -27 -27 -58 hvcurveto
            return
          </CharString>
          <CharString index="216">
            42 callgsubr
            142 rlineto
            return
          </CharString>
          <CharString index="217">
            24 5 -5 -24 hvcurveto
            return
          </CharString>
          <CharString index="218">
            -103 -20 626 rmoveto
            -70 332 70 vlineto
            -176 -448 rmoveto
            19 callgsubr
            75 -133 rcurveline
            -99 -82 callsubr
            -90 219 rmoveto
            84 callgsubr
            80 hlineto
            -102 -130 rlineto
            99 hlineto
            99 131 rlineto
            64 vlineto
            -7 6 -42 98 -27 46 -69 121 rcurveline
            218 callsubr
            return
          </CharString>
          <CharString index="219">
            33 callsubr
            304 return
          </CharString>
          <CharString index="220">
            -69 -31 -27 -59 hvcurveto
            -157 vlineto
            -61 29 -28 67 vhcurveto
            90 -91 callsubr
            317 return
          </CharString>
          <CharString index="221">
            9 callsubr
            207 469 callsubr
            return
          </CharString>
          <CharString index="222">
            74 hlineto
            67 30 204 callsubr
          </CharString>
          <CharString index="223">
            -61 32 -28 65 vhcurveto
            22 callsubr
          </CharString>
          <CharString index="224">
            rmoveto
            102 -480 rlineto
            49 hlineto
            -10 -41 rlineto
            -27 -7 -18 -6 -27 hhcurveto
            -41 -72 60 hlineto
            66 35 32 59 14 hvcurveto
            103 535 rlineto
            -91 hlineto
            -69 -409 -74 409 rlineto
            return
          </CharString>
          <CharString index="225">
            vlineto
            -24 -6 383 callsubr
            return
          </CharString>
          <CharString index="226">
            150 callgsubr
            6 5 return
          </CharString>
          <CharString index="227">
            -79 callgsubr
            19 hlineto
            24 return
          </CharString>
          <CharString index="228">
            hlineto
            -22 374 callsubr
            return
          </CharString>
          <CharString index="229">
            hlineto
            94 callgsubr
            -157 408 callgsubr
            -105 hlineto
            -64 -28 63 callgsubr
            129 hlineto
            22 14 6 15 6 hvcurveto
            -15 15 24 -6 33 hhcurveto
            78 485 callsubr
            return
          </CharString>
          <CharString index="230">
            -70 73 hlineto
            509 callgsubr
            -16 219 callgsubr
            return
          </CharString>
          <CharString index="231">
            -74 callsubr
            41 99 callsubr
            return
          </CharString>
          <CharString index="232">
            -70 66 50 callgsubr
            return
          </CharString>
          <CharString index="233">
            -24 callsubr
            164 return
          </CharString>
          <CharString index="234">
            30 -64 242 callsubr
            23 vhcurveto
            34 37 callgsubr
            return
          </CharString>
          <CharString index="235">
            -70 219 hlineto
            216 callgsubr
            128 70 -101 248 callgsubr
            179 99 vlineto
            56 32 32 59 hvcurveto
            6 27 vlineto
            32 10 -19 -28 15 hvcurveto
            29 -52 -152 -164 rlineto
            108 hlineto
            123 132 rlineto
            return
          </CharString>
          <CharString index="236">
            -64 -55 callsubr
            return
          </CharString>
          <CharString index="237">
            -4 callgsubr
            350 98 vlineto
            229 hmoveto
            70 -484 273 callsubr
            107 70 -102 246 callsubr
            85 vlineto
            endchar
          </CharString>
          <CharString index="238">
            -69 115 524 rmoveto
            -2 callgsubr
            24 vhcurveto
            32 hlineto
            25 5 -5 -24 hvcurveto
            -46 vlineto
            -47 -6 -31 -22 -42 vhcurveto
            -153 -288 rlineto
            -70 276 73 -174 vlineto
            135 265 rlineto
            25 48 10 36 53 vvcurveto
            63 vlineto
            57 -30 31 -64 vhcurveto
            -86 196 callsubr
            -116 90 vlineto
            endchar
          </CharString>
          <CharString index="239">
            vlineto
            264 callgsubr
            return
          </CharString>
          <CharString index="240">
            126 callsubr
            -79 callgsubr
            return
          </CharString>
          <CharString index="241">
            -412 352 callsubr
          </CharString>
          <CharString index="242">
            rmoveto
            -580 -70 418 -74 -174 -264 hlineto
            457 callgsubr
            -90 216 callsubr
            84 -212 vlineto
            -241 -252 rlineto
            102 hlineto
            139 149 rlineto
            -97 -101 callsubr
          </CharString>
          <CharString index="243">
            -68 vlineto
            -31 14 -15 83 callgsubr
            -31 vvcurveto
            return
          </CharString>
          <CharString index="244">
            vhcurveto
            -31 133 callsubr
            return
          </CharString>
          <CharString index="245">
            -7 343 538 rmoveto
            270 callgsubr
            -109 hlineto
            -65 79 callgsubr
            65 vhcurveto
            109 hlineto
            171 callgsubr
            -91 14 46 callgsubr
            -54 70 callsubr
            54 -93 callsubr
            endchar
          </CharString>
          <CharString index="246">
            rmoveto
            -417 -70 255 -350 hlineto
            -25 5 callgsubr
            -40 471 callgsubr
            324 callgsubr
            -206 382 callgsubr
            -83 callsubr
            endchar
          </CharString>
          <CharString index="247">
            208 81 callsubr
            350 99 vlineto
            return
          </CharString>
          <CharString index="248">
            hlineto
            27 5 226 callsubr
            return
          </CharString>
          <CharString index="249">
            125 callgsubr
            105 hlineto
            26 18 7 15 14 hvcurveto
            -15 16 22 -7 35 hhcurveto
            return
          </CharString>
          <CharString index="250">
            hlineto
            -31 -15 -15 -24 -2 hvcurveto
            -3 hlineto
            24 -2 -16 15 -31 hhcurveto
            -86 hlineto
            -60 -30 -28 -61 hvcurveto
            -251 vlineto
            -20 callgsubr
            64 vhcurveto
            87 73 -59 -74 callsubr
            224 -64 callsubr
            23 vhcurveto
            32 hlineto
            24 5 -6 -24 hvcurveto
            -164 90 164 23 callsubr
            return
          </CharString>
          <CharString index="251">
            -314 vlineto
            -276 -298 rlineto
            100 69 callgsubr
          </CharString>
          <CharString index="252">
            66 70 -581 -70 424 -74 -84 vlineto
            -90 callsubr
            65 vhcurveto
            78 73 -51 -95 callgsubr
            return
          </CharString>
          <CharString index="253">
            rmoveto
            106 132 rlineto
            -90 hlineto
            -82 -132 rlineto
            53 132 rmoveto
            -90 hlineto
            -82 -132 rlineto
            66 hlineto
            return
          </CharString>
          <CharString index="254">
            hvcurveto
            -137 vlineto
            -30 15 -16 2 callsubr
            return
          </CharString>
          <CharString index="255">
            -378 rmoveto
            -32 callgsubr
            return
          </CharString>
          <CharString index="256">
            334 callsubr
            -91 335 callsubr
            return
          </CharString>
          <CharString index="257">
            -376 336 callsubr
            return
          </CharString>
          <CharString index="258">
            hlineto
            64 -48 callsubr
            return
          </CharString>
          <CharString index="259">
            29 31 57 hvcurveto
            return
          </CharString>
          <CharString index="260">
            -230 354 callgsubr
            67 22 callgsubr
            -24 -5 5 24 hvcurveto
            181 return
          </CharString>
          <CharString index="261">
            149 callgsubr
            282 -36 callsubr
            92 134 callsubr
          </CharString>
          <CharString index="262">
            vlineto
            8 callsubr
            227 callgsubr
            108 -91 -96 vlineto
            -24 -5 -5 -23 vhcurveto
            -37 126 callsubr
            86 -16 callgsubr
            172 -2 rmoveto
            -626 90 473 callgsubr
          </CharString>
          <CharString index="263">
            30 -52 callsubr
            return
          </CharString>
          <CharString index="264">
            -22 -8 -9 271 callsubr
            58 hlineto
            31 19 8 17 10 hvcurveto
            -17 16 25 -8 36 hhcurveto
            446 callsubr
            return
          </CharString>
          <CharString index="265">
            225 callsubr
            -26 -100 callsubr
            205 vlineto
            24 return
          </CharString>
          <CharString index="266">
            vlineto
            135 callgsubr
            return
          </CharString>
          <CharString index="267">
            162 70 rmoveto
            return
          </CharString>
          <CharString index="268">
            -84 hlineto
            -30 385 callsubr
            -16 14 -30 hhcurveto
            -87 415 callsubr
            -213 336 callsubr
            return
          </CharString>
          <CharString index="269">
            302 callsubr
            -7 7 vhcurveto
            94 hlineto
            return
          </CharString>
          <CharString index="270">
            vlineto
            -57 27 -28 65 262 callgsubr
            return
          </CharString>
          <CharString index="271">
            144 72 70 -417 -70 255 -74 -91 return
          </CharString>
          <CharString index="272">
            vlineto
            71 -9 50 0 vhcurveto
            0 return
          </CharString>
          <CharString index="273">
            -3 vhcurveto
            -2 vlineto
            return
          </CharString>
          <CharString index="274">
            vlineto
            388 callsubr
            78 443 callsubr
          </CharString>
          <CharString index="275">
            27 5 5 27 vhcurveto
            35 70 -49 hlineto
            -59 -29 -28 -54 -25 4 -41 7 -32 hvcurveto
            -2 hlineto
            -10 28 -14 30 -23 32 -41 58 rcurveline
            return
          </CharString>
          <CharString index="276">
            332 callsubr
            94 hlineto
            return
          </CharString>
          <CharString index="277">
            63 hlineto
            17 11 3 return
          </CharString>
          <CharString index="278">
            264 callgsubr
            27 18 414 callgsubr
            33 hhcurveto
            74 -91 callsubr
            245 return
          </CharString>
          <CharString index="279">
            29 callgsubr
            -61 29 -28 67 vhcurveto
            return
          </CharString>
          <CharString index="280">
            232 callsubr
            -40 vlineto
            8 callsubr
            return
          </CharString>
          <CharString index="281">
            49 callsubr
            181 275 222 callgsubr
          </CharString>
          <CharString index="282">
            -1 callsubr
            24 hvcurveto
            36 252 callgsubr
            142 return
          </CharString>
          <CharString index="283">
            8 7 24 vhcurveto
            return
          </CharString>
          <CharString index="284">
            -174 -304 hlineto
            94 callgsubr
            return
          </CharString>
          <CharString index="285">
            194 hlineto
            -205 -481 rlineto
            -73 292 73 -200 vlineto
            205 481 rlineto
            return
          </CharString>
          <CharString index="286">
            348 rmoveto
            -103 hlineto
            -100 callgsubr
            96 hlineto
            -178 -176 190 callsubr
            return
          </CharString>
          <CharString index="287">
            626 rmoveto
            -453 -70 453 hlineto
            -299 -74 rmoveto
            -90 -315 hlineto
            350 callgsubr
            119 70 -209 -304 364 callsubr
            endchar
          </CharString>
          <CharString index="288">
            47 callsubr
            380 4 callgsubr
            return
          </CharString>
          <CharString index="289">
            vlineto
            -61 29 -28 67 vhcurveto
            88 hlineto
            67 156 callsubr
            return
          </CharString>
          <CharString index="290">
            40 4 194 callsubr
            return
          </CharString>
          <CharString index="291">
            87 vlineto
            152 callgsubr
            return
          </CharString>
          <CharString index="292">
            -25 4 callsubr
            return
          </CharString>
          <CharString index="293">
            vlineto
            -107 callsubr
            return
          </CharString>
          <CharString index="294">
            81 callsubr
            350 99 vlineto
            160 callsubr
            -423 -70 72 -361 hlineto
            -61 30 -28 59 vhcurveto
            -105 -158 9 callgsubr
          </CharString>
          <CharString index="295">
            -28 95 callgsubr
            28 -31 return
          </CharString>
          <CharString index="296">
            192 callsubr
            136 callsubr
            return
          </CharString>
          <CharString index="297">
            370 callsubr
            -153 hlineto
            282 callgsubr
            254 vlineto
            26 5 -6 -26 hvcurveto
            return
          </CharString>
          <CharString index="298">
            -57 349 callsubr
            return
          </CharString>
          <CharString index="299">
            -70 264 -74 -100 vlineto
            -58 callgsubr
            return
          </CharString>
          <CharString index="300">
            43 -9 57 0 vhcurveto
            0 19 -43 28 -40 vhcurveto
            return
          </CharString>
          <CharString index="301">
            -11 callgsubr
            -24 vhcurveto
            return
          </CharString>
          <CharString index="302">
            -74 252 callsubr
            return
          </CharString>
          <CharString index="303">
            hlineto
            233 callgsubr
            return
          </CharString>
          <CharString index="304">
            vlineto
            24 5 6 return
          </CharString>
          <CharString index="305">
            276 callgsubr
            130 vlineto
            23 480 callsubr
            -379 -158 41 callsubr
            130 387 callsubr
            71 hlineto
            return
          </CharString>
          <CharString index="306">
            241 callsubr
            207 99 callsubr
            94 413 callgsubr
            78 callgsubr
          </CharString>
          <CharString index="307">
            vvcurveto
            114 -90 -103 vlineto
            -25 -6 -5 -24 vhcurveto
            -30 -84 callgsubr
            145 144 69 70 -406 457 callsubr
            return
          </CharString>
          <CharString index="308">
            388 callsubr
            25 callgsubr
            -89 90 380 4 callgsubr
            68 356 callgsubr
            return
          </CharString>
          <CharString index="309">
            290 callgsubr
            120 -27 callgsubr
          </CharString>
          <CharString index="310">
            hlineto
            -135 193 rlineto
            -108 hlineto
            66 -91 32 -43 28 -35 24 -24 rlinecurve
            return
          </CharString>
          <CharString index="311">
            -52 callsubr
            245 82 -412 -101 callsubr
          </CharString>
          <CharString index="312">
            -187 60 626 rmoveto
            -626 90 626 vlineto
            return
          </CharString>
          <CharString index="313">
            92 vlineto
            152 callgsubr
            return
          </CharString>
          <CharString index="314">
            25 284 callgsubr
            -25 return
          </CharString>
          <CharString index="315">
            hlineto
            -46 callgsubr
            return
          </CharString>
          <CharString index="316">
            180 -4 callgsubr
            177 315 callgsubr
            return
          </CharString>
          <CharString index="317">
            hlineto
            69 callsubr
            return
          </CharString>
          <CharString index="318">
            159 callsubr
            4 hlineto
            455 callsubr
            return
          </CharString>
          <CharString index="319">
            121 rlineto
            75 68 return
          </CharString>
          <CharString index="320">
            -327 hlineto
            223 callsubr
          </CharString>
          <CharString index="321">
            -29 -31 -57 hvcurveto
            return
          </CharString>
          <CharString index="322">
            -5 -6 -3 -8 -13 vvcurveto
            -56 vlineto
            -54 28 -30 58 vhcurveto
            86 hlineto
            16 11 3 8 7 hvcurveto
            -75 79 232 vlineto
            54 4 27 28 56 vvcurveto
            308 vlineto
            55 -26 26 -52 3 vhcurveto
            75 vlineto
            endchar
          </CharString>
          <CharString index="323">
            -275 -86 callsubr
            205 return
          </CharString>
          <CharString index="324">
            rmoveto
            32 hlineto
            257 callsubr
            -98 vlineto
            return
          </CharString>
          <CharString index="325">
            75 68 -104 -29 callgsubr
            return
          </CharString>
          <CharString index="326">
            rmoveto
            77 hlineto
            105 132 rlineto
            -100 hlineto
            return
          </CharString>
          <CharString index="327">
            246 -120 -92 return
          </CharString>
          <CharString index="328">
            509 callgsubr
            -14 vvcurveto
            -112 323 callsubr
            -123 159 callsubr
            91 246 callgsubr
            118 181 rlineto
            return
          </CharString>
          <CharString index="329">
            -21 callgsubr
            -98 52 callsubr
            30 7 2 37 vhcurveto
            117 hlineto
            return
          </CharString>
          <CharString index="330">
            8 callsubr
            91 341 callsubr
            274 -278 -101 callsubr
          </CharString>
          <CharString index="331">
            rmoveto
            9 callsubr
            return
          </CharString>
          <CharString index="332">
            279 callsubr
            -24 vhcurveto
            return
          </CharString>
          <CharString index="333">
            437 callgsubr
            91 68 vlineto
            59 return
          </CharString>
          <CharString index="334">
            5 24 vhcurveto
            29 70 -57 hlineto
            return
          </CharString>
          <CharString index="335">
            510 callsubr
            -7 288 callsubr
          </CharString>
          <CharString index="336">
            330 callsubr
            -7 7 vhcurveto
            94 hlineto
            return
          </CharString>
          <CharString index="337">
            -230 vlineto
            -61 30 -28 return
          </CharString>
          <CharString index="338">
            -70 219 hlineto
            216 callgsubr
            185 68 -158 248 callgsubr
            183 return
          </CharString>
          <CharString index="339">
            -29 callgsubr
            -187 vlineto
            388 callsubr
            54 hlineto
            20 13 5 10 7 hvcurveto
            return
          </CharString>
          <CharString index="340">
            38 callsubr
            -283 226 callgsubr
            4 5 28 vhcurveto
            215 433 callgsubr
            return
          </CharString>
          <CharString index="341">
            497 callgsubr
            484 99 -93 callsubr
            -220 100 rmoveto
            -626 214 callgsubr
          </CharString>
          <CharString index="342">
            hlineto
            -78 callsubr
            -83 callsubr
            endchar
          </CharString>
          <CharString index="343">
            126 95 callsubr
            -218 -44 callgsubr
            -57 78 -91 -221 91 75 84 419 callgsubr
            233 vlineto
            13 -3 8 -5 5 vhcurveto
            return
          </CharString>
          <CharString index="344">
            -60 callgsubr
            207 vlineto
            24 5 5 24 vhcurveto
            29 68 191 callsubr
            69 hlineto
            return
          </CharString>
          <CharString index="345">
            38 callsubr
            -114 226 callgsubr
            3 5 29 vhcurveto
            46 433 callgsubr
            return
          </CharString>
          <CharString index="346">
            rmoveto
            144 69 70 -406 260 callsubr
            return
          </CharString>
          <CharString index="347">
            hlineto
            255 callgsubr
            return
          </CharString>
          <CharString index="348">
            vlineto
            -37 callgsubr
            return
          </CharString>
          <CharString index="349">
            vhcurveto
            -89 275 callgsubr
            return
          </CharString>
          <CharString index="350">
            -24 -8 -8 -24 317 callsubr
            return
          </CharString>
          <CharString index="351">
            45 callsubr
            24 vhcurveto
            return
          </CharString>
          <CharString index="352">
            hlineto
            17 11 3 7 8 hvcurveto
            return
          </CharString>
          <CharString index="353">
            hlineto
            26 callgsubr
            return
          </CharString>
          <CharString index="354">
            -35 -86 callgsubr
            return
          </CharString>
          <CharString index="355">
            271 callgsubr
            65 vhcurveto
            return
          </CharString>
          <CharString index="356">
            hlineto
            -24 -6 5 23 hvcurveto
            return
          </CharString>
          <CharString index="357">
            -67 -29 -27 -62 hvcurveto
            return
          </CharString>
          <CharString index="358">
            rlineto
            218 callsubr
            return
          </CharString>
          <CharString index="359">
            -257 -29 callgsubr
            return
          </CharString>
          <CharString index="360">
            hlineto
            23 6 -5 return
          </CharString>
          <CharString index="361">
            387 callsubr
            111 151 callsubr
            49 vlineto
            57 -27 28 -64 vhcurveto
            -101 -74 callsubr
            18 436 callgsubr
          </CharString>
          <CharString index="362">
            -30 callsubr
            158 27 vlineto
            return
          </CharString>
          <CharString index="363">
            vlineto
            -19 -4 -5 -20 vhcurveto
            -19 -56 50 hlineto
            51 21 24 45 hvcurveto
            64 53 -175 79 return
          </CharString>
          <CharString index="364">
            66 130 rlineto
            49 return
          </CharString>
          <CharString index="365">
            182 rmoveto
            -26 -8 -8 -26 vhcurveto
            -138 61 callgsubr
            -7 7 vhcurveto
            94 hlineto
            return
          </CharString>
          <CharString index="366">
            hlineto
            183 callsubr
            return
          </CharString>
          <CharString index="367">
            329 callgsubr
            -308 vlineto
            return
          </CharString>
          <CharString index="368">
            305 callgsubr
            -62 vhcurveto
            endchar
          </CharString>
          <CharString index="369">
            24 5 5 24 vhcurveto
            29 70 -57 hlineto
            -65 -27 -27 -58 hvcurveto
            -206 211 callsubr
            117 181 rlineto
            return
          </CharString>
          <CharString index="370">
            -21 callgsubr
            -139 -82 callsubr
            158 26 vlineto
            65 460 callgsubr
            return
          </CharString>
          <CharString index="371">
            -304 hlineto
            -85 callgsubr
            return
          </CharString>
          <CharString index="372">
            133 callsubr
            35 68 -60 hlineto
            -64 return
          </CharString>
          <CharString index="373">
            -308 vlineto
            -61 29 -28 67 vhcurveto
            112 hlineto
            return
          </CharString>
          <CharString index="374">
            -83 hlineto
            13 callgsubr
            return
          </CharString>
          <CharString index="375">
            -99 121 callgsubr
            return
          </CharString>
          <CharString index="376">
            -56 callsubr
            29 return
          </CharString>
          <CharString index="377">
            65 27 30 57 hvcurveto
            return
          </CharString>
          <CharString index="378">
            -45 callgsubr
            205 vlineto
            24 5 5 24 vhcurveto
            29 70 191 callsubr
            return
          </CharString>
          <CharString index="379">
            158 73 418 callsubr
            285 vlineto
            23 6 6 445 callsubr
            -273 401 callsubr
            return
          </CharString>
          <CharString index="380">
            -70 66 -365 305 callsubr
            return
          </CharString>
          <CharString index="381">
            -83 hlineto
            -65 callgsubr
            return
          </CharString>
          <CharString index="382">
            vlineto
            206 callgsubr
            return
          </CharString>
          <CharString index="383">
            vlineto
            31 -14 15 -25 2 vhcurveto
            3 vlineto
            25 2 14 16 return
          </CharString>
          <CharString index="384">
            hhcurveto
            63 412 callgsubr
            91 556 return
          </CharString>
          <CharString index="385">
            -28 65 vhcurveto
            160 76 callgsubr
            return
          </CharString>
          <CharString index="386">
            412 rmoveto
            -234 vlineto
            -25 -6 -5 return
          </CharString>
          <CharString index="387">
            -6 452 callgsubr
            64 return
          </CharString>
          <CharString index="388">
            99 callsubr
            72 hlineto
            return
          </CharString>
          <CharString index="389">
            388 callgsubr
            -37 hlineto
            return
          </CharString>
          <CharString index="390">
            -31 -58 hvcurveto
            -311 vlineto
            return
          </CharString>
          <CharString index="391">
            hvcurveto
            -117 vlineto
            return
          </CharString>
          <CharString index="392">
            -67 -29 -27 -62 hvcurveto
            468 callsubr
            77 -60 -57 243 callgsubr
            35 return
          </CharString>
          <CharString index="393">
            -61 callgsubr
            105 -362 98 callgsubr
          </CharString>
          <CharString index="394">
            rmoveto
            94 hlineto
            52 81 53 -81 rlineto
            93 hlineto
            -95 132 rlineto
            -101 hlineto
            endchar
          </CharString>
          <CharString index="395">
            29 hhcurveto
            63 343 callsubr
          </CharString>
          <CharString index="396">
            99 callsubr
            endchar
          </CharString>
          <CharString index="397">
            357 callsubr
            253 callgsubr
            -45 -100 callsubr
            155 -77 callsubr
            return
          </CharString>
          <CharString index="398">
            14 callgsubr
            125 -90 -113 31 callgsubr
            return
          </CharString>
          <CharString index="399">
            -71 callsubr
            133 142 107 70 hlineto
            endchar
          </CharString>
          <CharString index="400">
            hlineto
            -82 callgsubr
            134 return
          </CharString>
          <CharString index="401">
            224 callsubr
            378 99 vlineto
            return
          </CharString>
          <CharString index="402">
            235 178 41 callsubr
            return
          </CharString>
          <CharString index="403">
            hlineto
            -50 -28 -16 -34 -10 hvcurveto
            -102 124 return
          </CharString>
          <CharString index="404">
            vlineto
            448 callgsubr
            return
          </CharString>
          <CharString index="405">
            rmoveto
            -268 -68 268 hlineto
            return
          </CharString>
          <CharString index="406">
            -6 -3 -8 -12 vvcurveto
            return
          </CharString>
          <CharString index="407">
            -28 31 -65 vhcurveto
            return
          </CharString>
          <CharString index="408">
            125 callgsubr
            104 hlineto
            return
          </CharString>
          <CharString index="409">
            vlineto
            65 -19 callsubr
            return
          </CharString>
          <CharString index="410">
            -229 rmoveto
            33 hlineto
            257 callsubr
            -99 vlineto
            return
          </CharString>
          <CharString index="411">
            vhcurveto
            -41 hlineto
            -24 -6 5 return
          </CharString>
          <CharString index="412">
            382 callgsubr
            380 4 callgsubr
            return
          </CharString>
          <CharString index="413">
            -163 323 callgsubr
          </CharString>
          <CharString index="414">
            84 callgsubr
            25 callgsubr
            return
          </CharString>
          <CharString index="415">
            -556 -101 callsubr
          </CharString>
          <CharString index="416">
            412 rmoveto
            144 return
          </CharString>
          <CharString index="417">
            -24 -5 -92 callsubr
            94 vlineto
            25 -54 callsubr
            61 70 -61 -94 callsubr
            94 vlineto
            30 7 2 37 vhcurveto
            return
          </CharString>
          <CharString index="418">
            322 callgsubr
            -64 return
          </CharString>
          <CharString index="419">
            502 callgsubr
            282 vlineto
            24 5 5 24 184 callgsubr
          </CharString>
          <CharString index="420">
            rlineto
            97 450 callgsubr
            98 callgsubr
          </CharString>
          <CharString index="421">
            250 callsubr
            -304 vlineto
            return
          </CharString>
          <CharString index="422">
            hlineto
            67 156 callsubr
            195 return
          </CharString>
          <CharString index="423">
            -116 -94 callsubr
            return
          </CharString>
          <CharString index="424">
            vhcurveto
            -37 -82 callsubr
            return
          </CharString>
          <CharString index="425">
            89 -101 callgsubr
          </CharString>
          <CharString index="426">
            -27 -27 -57 hvcurveto
            return
          </CharString>
          <CharString index="427">
            376 callsubr
            23 6 -5 -25 hvcurveto
            return
          </CharString>
          <CharString index="428">
            -56 callsubr
            57 hlineto
            335 214 rmoveto
            -565 -70 403 195 callsubr
            return
          </CharString>
          <CharString index="429">
            422 callsubr
            77 -132 rcurveline
            -1 -4 -4 0 -4 hhcurveto
            return
          </CharString>
          <CharString index="430">
            390 callgsubr
            12 callsubr
            -31 vvcurveto
            return
          </CharString>
          <CharString index="431">
            -86 callsubr
            215 return
          </CharString>
          <CharString index="432">
            461 callsubr
            -198 return
          </CharString>
          <CharString index="433">
            hlineto
            152 callgsubr
            -230 vlineto
            -61 29 -28 67 vhcurveto
            return
          </CharString>
          <CharString index="434">
            hlineto
            152 callgsubr
            84 callgsubr
            return
          </CharString>
          <CharString index="435">
            246 626 rmoveto
            -266 -70 266 hlineto
            return
          </CharString>
          <CharString index="436">
            -74 -6 vlineto
            314 callsubr
            return
          </CharString>
          <CharString index="437">
            128 callgsubr
            102 33 callgsubr
            return
          </CharString>
          <CharString index="438">
            335 626 rmoveto
            -355 -70 355 hlineto
            return
          </CharString>
          <CharString index="439">
            33 callgsubr
            -6 7 vhcurveto
            return
          </CharString>
          <CharString index="440">
            hlineto
            -17 111 callgsubr
            return
          </CharString>
          <CharString index="441">
            vlineto
            337 callsubr
            return
          </CharString>
          <CharString index="442">
            hlineto
            -65 -27 -30 -57 hvcurveto
            return
          </CharString>
          <CharString index="443">
            vlineto
            -24 -8 -8 -23 vhcurveto
            return
          </CharString>
          <CharString index="444">
            57 -27 30 -65 vhcurveto
            return
          </CharString>
          <CharString index="445">
            -25 437 callsubr
            return
          </CharString>
          <CharString index="446">
            131 vlineto
            24 return
          </CharString>
          <CharString index="447">
            538 330 callgsubr
            230 411 callsubr
            -41 hlineto
            -23 return
          </CharString>
          <CharString index="448">
            57 callgsubr
            -23 -6 5 24 hvcurveto
            181 return
          </CharString>
          <CharString index="449">
            -106 286 626 rmoveto
            -280 -75 183 hlineto
            -163 -551 rlineto
            92 hlineto
            168 570 rlineto
            endchar
          </CharString>
          <CharString index="450">
            412 callgsubr
            98 callgsubr
          </CharString>
          <CharString index="451">
            hlineto
            15 10 2 6 435 callsubr
          </CharString>
          <CharString index="452">
            504 callgsubr
            87 -16 callgsubr
            return
          </CharString>
          <CharString index="453">
            -1 callsubr
            24 hvcurveto
            166 vlineto
            -31 callgsubr
            -189 vlineto
            return
          </CharString>
          <CharString index="454">
            hlineto
            -33 callsubr
            171 105 -362 98 callgsubr
          </CharString>
          <CharString index="455">
            rmoveto
            -92 hlineto
            -82 -345 -87 345 rlineto
            -92 hlineto
            134 -428 rlineto
            -198 91 198 vlineto
            endchar
          </CharString>
          <CharString index="456">
            hlineto
            -65 82 callgsubr
            return
          </CharString>
          <CharString index="457">
            447 callgsubr
            -57 28 -28 58 vhcurveto
            return
          </CharString>
          <CharString index="458">
            vlineto
            62 161 callgsubr
            -62 246 callsubr
            return
          </CharString>
          <CharString index="459">
            10 callsubr
            hlineto
            endchar
          </CharString>
          <CharString index="460">
            -25 -3 -14 -15 return
          </CharString>
          <CharString index="461">
            hlineto
            -26 280 callsubr
            -28 callsubr
            return
          </CharString>
          <CharString index="462">
            70 -271 -70 72 -361 vlineto
            -61 30 -28 59 vhcurveto
            490 callsubr
            return
          </CharString>
          <CharString index="463">
            -71 callsubr
            endchar
          </CharString>
          <CharString index="464">
            412 callsubr
            -196 return
          </CharString>
          <CharString index="465">
            vlineto
            -58 27 -27 64 vhcurveto
            return
          </CharString>
          <CharString index="466">
            143 171 rmoveto
            62 -29 28 -67 vhcurveto
            -32 -71 12 -93 callsubr
            -253 86 75 return
          </CharString>
          <CharString index="467">
            -68 -212 rmoveto
            -72 callsubr
            171 165 callsubr
            18 -47 31 -62 vhcurveto
            return
          </CharString>
          <CharString index="468">
            rlineto
            114 callgsubr
            return
          </CharString>
          <CharString index="469">
            rmoveto
            185 callsubr
            -27 -82 callsubr
            152 -79 callgsubr
            57 hlineto
            return
          </CharString>
          <CharString index="470">
            hlineto
            -62 31 -27 491 callgsubr
            -85 -101 callsubr
          </CharString>
          <CharString index="471">
            vlineto
            33 callsubr
            return
          </CharString>
          <CharString index="472">
            vlineto
            24 6 5 445 callsubr
            return
          </CharString>
          <CharString index="473">
            -7 29 hhcurveto
            -70 callgsubr
            -89 90 return
          </CharString>
          <CharString index="474">
            vhcurveto
            -38 -24 callsubr
            return
          </CharString>
          <CharString index="475">
            415 callgsubr
            171 return
          </CharString>
          <CharString index="476">
            -5 -24 hvcurveto
            -78 91 92 vlineto
            57 return
          </CharString>
          <CharString index="477">
            rmoveto
            454 callgsubr
            104 return
          </CharString>
          <CharString index="478">
            160 callgsubr
            vlineto
            return
          </CharString>
          <CharString index="479">
            -86 callgsubr
            78 return
          </CharString>
          <CharString index="480">
            166 rlineto
            -114 return
          </CharString>
          <CharString index="481">
            -6 5 24 hvcurveto
            return
          </CharString>
          <CharString index="482">
            -31 callgsubr
            -187 vlineto
            388 callsubr
            return
          </CharString>
          <CharString index="483">
            -158 rlineto
            98 450 callgsubr
            397 callgsubr
            return
          </CharString>
          <CharString index="484">
            477 callgsubr
            207 315 callgsubr
            return
          </CharString>
          <CharString index="485">
            -1 callgsubr
            -128 -4 callsubr
            143 return
          </CharString>
          <CharString index="486">
            705 rmoveto
            68 -66 vlineto
            -64 319 callsubr
            -83 90 71 vlineto
            24 5 4 24 vhcurveto
            endchar
          </CharString>
          <CharString index="487">
            429 callsubr
            endchar
          </CharString>
          <CharString index="488">
            vlineto
            403 callsubr
            -53 71 callgsubr
            23 vhcurveto
            return
          </CharString>
          <CharString index="489">
            rmoveto
            -96 hlineto
            -108 -233 108 -255 rlineto
            96 hlineto
            -112 255 rlineto
            endchar
          </CharString>
          <CharString index="490">
            -9 callgsubr
            -29 -68 57 208 callgsubr
            return
          </CharString>
          <CharString index="491">
            185 callgsubr
            70 return
          </CharString>
          <CharString index="492">
            -15 -14 -25 -3 hvcurveto
            -2 hlineto
            25 -3 return
          </CharString>
          <CharString index="493">
            vlineto
            57 -26 30 -65 vhcurveto
            return
          </CharString>
          <CharString index="494">
            vlineto
            23 6 5 24 vhcurveto
            return
          </CharString>
          <CharString index="495">
            -61 -21 callsubr
            return
          </CharString>
          <CharString index="496" raw="1">
            4e520a0b   
          </CharString>
          <CharString index="497">
            -25 -7 407 callsubr
            return
          </CharString>
          <CharString index="498">
            vhcurveto
            74 hlineto
            67 29 204 callsubr
          </CharString>
          <CharString index="499">
            -38 -25 -20 -22 -8 hvcurveto
            22 -8 -26 20 -35 hhcurveto
            -71 416 callsubr
            return
          </CharString>
          <CharString index="500">
            hlineto
            -39 70 rlineto
            47 -27 -21 17 -63 hhcurveto
            -41 85 hlineto
            13 -3 8 -5 5 vhcurveto
            return
          </CharString>
          <CharString index="501" raw="1">
            6f0af780 fbe70670 0b 
          </CharString>
          <CharString index="502">
            vlineto
            406 callgsubr
            return
          </CharString>
          <CharString index="503">
            74 -91 callsubr
            245 82 -412 98 callgsubr
          </CharString>
          <CharString index="504">
            -189 vlineto
            -61 29 -28 67 vhcurveto
            78 hlineto
            67 return
          </CharString>
          <CharString index="505">
            343 626 rmoveto
            -363 -70 363 hlineto
            return
          </CharString>
          <CharString index="506">
            -99 197 callgsubr
            return
          </CharString>
          <CharString index="507">
            337 callsubr
            -89 hlineto
            return
          </CharString>
          <CharString index="508">
            336 callgsubr
            33 return
          </CharString>
          <CharString index="509">
            40 vlineto
            270 callsubr
            return
          </CharString>
          <CharString index="510">
            -25 -8 -9 -26 vhcurveto
            return
          </CharString>
          <CharString index="511">
            -62 29 -27 67 vhcurveto
            return
          </CharString>
          <CharString index="512">
            vhcurveto
            74 hlineto
            67 return
          </CharString>
          <CharString index="513">
            282 callsubr
            -60 319 callsubr
            -58 60 43 vlineto
            24 return
          </CharString>
          <CharString index="514">
            189 callgsubr
            205 -36 callsubr
            return
          </CharString>
          <CharString index="515" raw="1">
            45f727f8 4b1d0b  
          </CharString>
          <CharString index="516">
            439 callsubr
            146 hlineto
            return
          </CharString>
          <CharString index="517">
            rmoveto
            -100 hlineto
            105 -132 rlineto
            77 hlineto
            endchar
          </CharString>
          <CharString index="518">
            337 callgsubr
            -24 vhcurveto
            return
          </CharString>
          <CharString index="519">
            432 283 callgsubr
            return
          </CharString>
          <CharString index="520">
            -86 callgsubr
            103 vlineto
            return
          </CharString>
          <CharString index="521" raw="1">
            38066c7c 7d720b  
          </CharString>
          <CharString index="522">
            319 callgsubr
            -62 hvcurveto
            return
          </CharString>
          <CharString index="523">
            hlineto
            -62 -28 -31 -58 hvcurveto
            return
          </CharString>
          <CharString index="524">
            vlineto
            23 5 6 24 vhcurveto
            return
          </CharString>
          <CharString index="525">
            rmoveto
            474 callgsubr
            return
          </CharString>
          <CharString index="526">
            -176 rmoveto
            -26 -6 -6 return
          </CharString>
          <CharString index="527">
            vlineto
            -61 153 callgsubr
            194 66 -171 -82 callsubr
            return
          </CharString>
          <CharString index="528">
            329 658 353 callgsubr
            88 70 -766 -70 587 -74 return
          </CharString>
          <CharString index="529">
            148 242 callgsubr
            return
          </CharString>
          <CharString index="530">
            88 callgsubr
            hlineto
            endchar
          </CharString>
          <CharString index="531">
            -56 callsubr
            71 hlineto
            -367 return
          </CharString>
          <CharString index="532">
            vhcurveto
            34 95 callsubr
            -119 return
          </CharString>
          <CharString index="533">
            384 callsubr
            -72 return
          </CharString>
          <CharString index="534">
            262 -31 vlineto
            -70 -198 rlineto
            -64 vlineto
            return
          </CharString>
          <CharString index="535">
            6 15 6 hvcurveto
            -14 return
          </CharString>
          <CharString index="536">
            rmoveto
            -95 84 95 vlineto
            return
          </CharString>
          <CharString index="537">
            -70 247 -74 return
          </CharString>
          <CharString index="538">
            178 rmoveto
            -72 callgsubr
            -138 -100 callsubr
            return
          </CharString>
          <CharString index="539">
            vlineto
            -61 29 -28 67 vhcurveto
            55 hlineto
            18 -65 callsubr
            -89 90 return
          </CharString>
          <CharString index="540">
            -84 hlineto
            10 callgsubr
            -30 hhcurveto
            return
          </CharString>
          <CharString index="541">
            72 -251 -72 158 vlineto
            -169 -344 rlineto
            -72 264 72 return
          </CharString>
          <CharString index="542">
            8 hvcurveto
            -86 -101 callsubr
          </CharString>
          <CharString index="543">
            rmoveto
            -75 71 75 vlineto
            endchar
          </CharString>
          <CharString index="544">
            -8 -7 -24 vhcurveto
            return
          </CharString>
          <CharString index="545">
            -91 -50 vlineto
            -21 5 callgsubr
            -79 -82 callsubr
            return
          </CharString>
          <CharString index="546">
            -92 callsubr
            149 vlineto
            33 8 0 47 -2 vhcurveto
            -7 1 rlineto
            return
          </CharString>
          <CharString index="547">
            -70 72 -389 hlineto
            297 callgsubr
            return
          </CharString>
          <CharString index="548">
            259 callsubr
            -89 return
          </CharString>
          <CharString index="549">
            -79 callgsubr
            35 68 -60 418 callgsubr
            return
          </CharString>
          <CharString index="550">
            hlineto
            18 -76 callsubr
          </CharString>
          <CharString index="551">
            -55 callsubr
            338 callgsubr
            return
          </CharString>
          <CharString index="552">
            24 vhcurveto
            35 hlineto
            23 10 -9 -26 hvcurveto
            return
          </CharString>
          <CharString index="553">
            75 -91 callsubr
            245 return
          </CharString>
          <CharString index="554">
            160 hlineto
            17 -65 callsubr
            return
          </CharString>
          <CharString index="555">
            -67 callsubr
            -31 return
          </CharString>
          <CharString index="556">
            27 vlineto
            64 26 29 58 hvcurveto
            return
          </CharString>
          <CharString index="557">
            334 353 callgsubr
            return
          </CharString>
          <CharString index="558">
            27 128 callgsubr
            return
          </CharString>
          <CharString index="559">
            61 vlineto
            63 29 27 59 hvcurveto
            return
          </CharString>
          <CharString index="560">
            vlineto
            499 callgsubr
            return
          </CharString>
          <CharString index="561">
            vlineto
            -23 5 callgsubr
            return
          </CharString>
          <CharString index="562">
            -106 389 callgsubr
            return
          </CharString>
          <CharString index="563">
            -198 rlineto
            -11 return
          </CharString>
          <CharString index="564">
            374 callgsubr
            -29 callgsubr
            -308 vlineto
            return
          </CharString>
          <CharString index="565">
            267 callgsubr
            -27 46 vhcurveto
            return
          </CharString>
          <CharString index="566">
            74 -91 callsubr
            245 102 70 -277 vlineto
            return
          </CharString>
          <CharString index="567">
            177 rmoveto
            14 11 2 3 10 hvcurveto
            -112 vlineto
            -23 return
          </CharString>
          <CharString index="568">
            82 callsubr
            23 return
          </CharString>
          <CharString index="569">
            vlineto
            -24 -6 -5 -22 49 callsubr
            return
          </CharString>
          <CharString index="570">
            vlineto
            404 callsubr
            88 hlineto
            67 30 27 62 hvcurveto
            return
          </CharString>
          <CharString index="571">
            vlineto
            -61 29 -28 67 vhcurveto
            74 485 callsubr
            return
          </CharString>
          <CharString index="572">
            rmoveto
            -73 66 73 vlineto
            -66 112 rmoveto
            -73 66 73 vlineto
            return
          </CharString>
          <CharString index="573">
            502 callsubr
            -114 90 return
          </CharString>
          <CharString index="574">
            hlineto
            40 492 callgsubr
            return
          </CharString>
          <CharString index="575">
            -304 vlineto
            -61 29 -28 67 vhcurveto
            return
          </CharString>
          <CharString index="576">
            298 callgsubr
            68 return
          </CharString>
          <CharString index="577">
            333 callgsubr
            -72 return
          </CharString>
          <CharString index="578">
            482 callgsubr
            -24 vhcurveto
            return
          </CharString>
          <CharString index="579">
            -351 -29 callgsubr
            return
          </CharString>
          <CharString index="580">
            rmoveto
            -74 71 74 vlineto
            endchar
          </CharString>
          <CharString index="581">
            vhcurveto
            57 73 -29 hlineto
            return
          </CharString>
          <CharString index="582">
            rmoveto
            267 callsubr
            return
          </CharString>
          <CharString index="583">
            5 24 vhcurveto
            29 68 -57 -29 callgsubr
            return
          </CharString>
          <CharString index="584">
            -130 161 -90 -161 -130 -71 130 return
          </CharString>
          <CharString index="585">
            449 callgsubr
            -614 -70 251 return
          </CharString>
          <CharString index="586">
            373 callsubr
            -101 callsubr
          </CharString>
          <CharString index="587">
            -54 callsubr
            71 hlineto
            return
          </CharString>
          <CharString index="588">
            vlineto
            129 callsubr
            return
          </CharString>
          <CharString index="589">
            vlineto
            -58 487 callsubr
            return
          </CharString>
          <CharString index="590">
            vlineto
            -23 -6 -5 -23 vhcurveto
            return
          </CharString>
          <CharString index="591">
            669 -90 -669 vlineto
            return
          </CharString>
          <CharString index="592">
            hlineto
            68 -63 callgsubr
            return
          </CharString>
          <CharString index="593">
            197 callsubr
            25 vhcurveto
            return
          </CharString>
          <CharString index="594">
            29 -31 64 vhcurveto
            return
          </CharString>
          <CharString index="595">
            26 -57 vhcurveto
            endchar
          </CharString>
          <CharString index="596">
            -102 callgsubr
            105 -64 callgsubr
            return
          </CharString>
          <CharString index="597">
            -105 357 callgsubr
            return
          </CharString>
          <CharString index="598">
            333 callgsubr
            -233 -70 72 return
          </CharString>
          <CharString index="599">
            -24 vhcurveto
            -70 -16 77 -82 hhcurveto
            -37 hlineto
            -61 -23 return
          </CharString>
          <CharString index="600">
            vlineto
            -58 callgsubr
            -54 511 callsubr
            return
          </CharString>
          <CharString index="601">
            447 callsubr
            -89 90 return
          </CharString>
          <CharString index="602">
            -70 245 -124 -99 hlineto
            return
          </CharString>
          <CharString index="603">
            65 305 callgsubr
            -65 vhcurveto
            return
          </CharString>
          <CharString index="604">
            -6 -26 hvcurveto
            -144 vlineto
            -26 return
          </CharString>
          <CharString index="605">
            -91 vlineto
            -24 -8 -8 return
          </CharString>
          <CharString index="606">
            vhcurveto
            54 hlineto
            24 5 return
          </CharString>
          <CharString index="607">
            hlineto
            24 8 -7 return
          </CharString>
          <CharString index="608">
            vlineto
            -58 callgsubr
            229 vmoveto
            -70 return
          </CharString>
          <CharString index="609">
            -105 389 callgsubr
            107 166 rlineto
            return
          </CharString>
          <CharString index="610">
            -354 rmoveto
            185 callsubr
            -45 hlineto
            return
          </CharString>
          <CharString index="611">
            214 657 rmoveto
            -86 -688 86 hlineto
            return
          </CharString>
          <CharString index="612">
            hhcurveto
            74 hlineto
            67 156 callsubr
            245 return
          </CharString>
          <CharString index="613">
            91 -101 callgsubr
          </CharString>
          <CharString index="614">
            0 -6 -7 vvcurveto
            return
          </CharString>
          <CharString index="615">
            339 hmoveto
            70 return
          </CharString>
          <CharString index="616">
            111 hlineto
            65 return
          </CharString>
          <CharString index="617">
            hvcurveto
            -13 15 22 return
          </CharString>
          <CharString index="618">
            229 rmoveto
            -70 return
          </CharString>
        <CharString name=".notdef">
          113 0 vmoveto
          502 701 -502 hlineto
          51 -49 rmoveto
          400 -603 -400 hlineto
          200 253 rmoveto
          105 -209 rlineto
          60 hlineto
          -135 254 135 261 rlineto
          -60 hlineto
          -100 -206 rlineto
          -4 hlineto
          -105 206 rlineto
          -60 hlineto
          134 -255 -134 -260 rlineto
          60 hlineto
          100 209 rlineto
          endchar
        </CharString>
        <CharString name="A">
          -12 136 218 rmoveto
          -50 callsubr
        </CharString>
        <CharString name="AE">
          182 181 221 rmoveto
          105 293 rlineto
          -293 vlineto
          89 -148 rmoveto
          214 144 73 -144 193 174 73 -306 vlineto
          -232 -626 rlineto
          91 hlineto
          53 149 rlineto
          131 -149 270 73 hlineto
          endchar
        </CharString>
        <CharString name="Aacute">
          -12 333 789 75 callgsubr
          -92 -439 rmoveto
          -50 callsubr
        </CharString>
        <CharString name="Abreve">
          -12 239 657 rmoveto
          65 29 31 58 hvcurveto
          43 -84 101 callsubr
          -2 -439 rmoveto
          -50 callsubr
        </CharString>
        <CharString name="Acircumflex">
          -12 188 738 61 callsubr
          -439 vmoveto
          -50 callsubr
        </CharString>
        <CharString name="Adieresis">
          -12 334 751 183 callgsubr
          -9 -439 rmoveto
          -50 callsubr
        </CharString>
        <CharString name="Agrave">
          -12 220 657 164 callgsubr
          -7 -439 rmoveto
          -50 callsubr
        </CharString>
        <CharString name="Amacron">
          -12 322 726 298 callsubr
          -186 -440 rmoveto
          -50 callsubr
        </CharString>
        <CharString name="Aogonek">
          -12 136 218 rmoveto
          52 330 57 -330 rlineto
          65 -380 rmoveto
          104 callsubr
          97 -2 hlineto
          -117 615 rlineto
          -131 hlineto
          -111 -626 rlineto
          90 hlineto
          23 145 rlineto
          132 hlineto
          25 -145 rlineto
          20 -23 -8 hlineto
          423 callsubr
        </CharString>
        <CharString name="Aring">
          -12 146 740 16 callgsubr
          -20 -440 rmoveto
          -50 callsubr
        </CharString>
        <CharString name="Atilde">
          -12 123 673 rmoveto
          218 callgsubr
          11 callsubr
          vlineto
          13 -440 rmoveto
          -50 callsubr
        </CharString>
        <CharString name="B">
          12 52 626 rmoveto
          -626 217 vlineto
          166 callgsubr
          171 vlineto
          33 -13 18 -27 7 vhcurveto
          27 6 13 22 34 vvcurveto
          159 vlineto
          57 -29 31 -65 vhcurveto
          3 -526 46 callgsubr
          -100 212 100 -93 callsubr
          129 vmoveto
          -18 callgsubr
          -100 201 100 -93 callsubr
          endchar
        </CharString>
        <CharString name="C">
          -20 340 430 -7 callgsubr
        </CharString>
        <CharString name="CR">
          -397 endchar
        </CharString>
        <CharString name="Cacute">
          -20 336 789 75 callgsubr
          109 -227 -7 callgsubr
        </CharString>
        <CharString name="Ccaron">
          -20 244 657 19 callsubr
          197 -227 -7 callgsubr
        </CharString>
        <CharString name="Ccedilla">
          -20 153 266 callgsubr
          187 480 -7 callgsubr
        </CharString>
        <CharString name="D">
          15 274 100 234 callsubr
        </CharString>
        <CharString name="Dcaron">
          15 254 657 19 callsubr
          121 -557 234 callsubr
        </CharString>
        <CharString name="Dcroat">
          17 274 102 497 callgsubr
          207 75 71 -75 202 99 -93 callsubr
          -220 102 rmoveto
          -275 -51 -71 51 -280 214 callgsubr
        </CharString>
        <CharString name="E">
          -54 143 73 rmoveto
          214 71 callsubr
          vlineto
          endchar
        </CharString>
        <CharString name="Eacute">
          -54 325 789 75 callgsubr
          -77 -370 rmoveto
          71 callsubr
          -181 hlineto
          endchar
        </CharString>
        <CharString name="Ecaron">
          -54 235 657 19 callsubr
          9 -370 rmoveto
          71 callsubr
          -181 hlineto
          endchar
        </CharString>
        <CharString name="Ecircumflex">
          -54 186 738 61 callsubr
          9 -370 rmoveto
          71 callsubr
          -181 hlineto
          endchar
        </CharString>
        <CharString name="Edieresis">
          -43 139 751 rmoveto
          -102 -94 102 hlineto
          4 -370 rmoveto
          71 callsubr
          -181 hlineto
          84 678 507 callgsubr
        </CharString>
        <CharString name="Edotaccent">
          -54 246 753 rmoveto
          -107 -96 107 hlineto
          -103 -584 rmoveto
          214 71 callsubr
          vlineto
          endchar
        </CharString>
        <CharString name="Egrave">
          -54 223 657 164 callgsubr
          -3 -584 rmoveto
          214 71 callsubr
          vlineto
          endchar
        </CharString>
        <CharString name="Emacron">
          -54 317 739 298 callsubr
          -174 -598 rmoveto
          214 71 callsubr
          vlineto
          endchar
        </CharString>
        <CharString name="Eogonek">
          -54 261 -162 rmoveto
          104 callsubr
          159 -181 214 144 73 -144 193 174 73 -265 -626 201 -23 -8 hlineto
          423 callsubr
        </CharString>
        <CharString name="Eth">
          15 274 100 497 callgsubr
          209 75 71 -75 204 99 -93 callsubr
          -220 100 rmoveto
          -275 -51 -71 51 -280 214 callgsubr
        </CharString>
        <CharString name="Euro">
          2 362 430 rmoveto
          108 249 callgsubr
          -106 hlineto
          -65 214 callsubr
          -133 -46 -66 46 -51 -46 -67 46 -133 vlineto
          -58 29 -31 65 vhcurveto
          106 hlineto
          64 29 31 58 hvcurveto
          106 -91 -95 42 callsubr
          -51 -24 callsubr
          122 87 67 -87 51 87 66 -87 121 -79 callgsubr
          51 -93 callsubr
          -96 vlineto
          endchar
        </CharString>
        <CharString name="F">
          -65 325 553 rmoveto
          73 -273 -626 91 276 144 71 -144 206 vlineto
          endchar
        </CharString>
        <CharString name="G">
          -15 340 443 38 callgsubr
        </CharString>
        <CharString name="Gbreve">
          -15 244 657 rmoveto
          65 29 31 58 hvcurveto
          43 -84 101 callsubr
          197 -214 38 callgsubr
        </CharString>
        <CharString name="H">
          20 275 626 rmoveto
          -278 -133 278 -90 -626 90 275 133 -275 90 626 vlineto
          endchar
        </CharString>
        <CharString name="I">
          205 callsubr
          endchar
        </CharString>
        <CharString name="Iacute">
          205 callsubr
          -81 31 219 callsubr
          endchar
        </CharString>
        <CharString name="Icircumflex">
          205 callsubr
          -190 31 287 callsubr
        </CharString>
        <CharString name="Idieresis">
          -187 -42 657 278 callgsubr
          -88 -125 rmoveto
          -626 90 626 vlineto
          endchar
        </CharString>
        <CharString name="Idotaccent">
          205 callsubr
          -99 44 rmoveto
          107 96 -107 hlineto
          endchar
        </CharString>
        <CharString name="Igrave">
          205 callsubr
          -89 163 410 callsubr
        </CharString>
        <CharString name="Imacron">
          205 callsubr
          -180 45 399 callgsubr
        </CharString>
        <CharString name="Iogonek">
          -187 87 -162 rmoveto
          104 callsubr
          712 -90 -626 19 -23 -8 hlineto
          423 callsubr
        </CharString>
        <CharString name="J">
          -63 14 206 rmoveto
          -118 170 callgsubr
          85 hlineto
          171 callgsubr
          538 -91 -524 42 callsubr
          -29 -86 callgsubr
          104 vlineto
          endchar
        </CharString>
        <CharString name="K">
          -13 52 hmoveto
          90 626 -90 hlineto
          322 hmoveto
          392 callgsubr
        </CharString>
        <CharString name="L">
          -96 142 73 314 callgsubr
        </CharString>
        <CharString name="Lacute">
          -96 241 789 75 callgsubr
          6 -584 314 callgsubr
        </CharString>
        <CharString name="Lcaron">
          -96 241 794 rmoveto
          -93 hlineto
          -53 -81 -52 81 rlineto
          -94 hlineto
          96 -132 rlineto
          101 hlineto
          -4 -589 314 callgsubr
        </CharString>
        <CharString name="Lslash">
          -88 144 73 rmoveto
          222 vlineto
          100 47 rlineto
          70 vlineto
          -100 -47 rlineto
          261 -90 -303 vlineto
          -76 -35 rlineto
          -71 vlineto
          76 36 rlineto
          -253 245 73 vlineto
          endchar
        </CharString>
        <CharString name="M">
          119 299 136 rmoveto
          86 322 rlineto
          -458 79 626 -99 vlineto
          -107 -388 -107 388 rlineto
          -99 -626 79 457 hlineto
          86 -321 rlineto
          endchar
        </CharString>
        <CharString name="N">
          13 275 626 323 callgsubr
        </CharString>
        <CharString name="NULL">
          -397 endchar
        </CharString>
        <CharString name="Nacute">
          13 167 657 219 callsubr
          26 306 callsubr
        </CharString>
        <CharString name="Ncaron">
          13 157 657 rmoveto
          101 hlineto
          95 132 rlineto
          -93 hlineto
          -53 -81 -52 81 rlineto
          -94 hlineto
          214 306 callsubr
        </CharString>
        <CharString name="Ntilde">
          13 275 626 87 callsubr
          -97 32 rmoveto
          11 callsubr
          15 vlineto
          218 callgsubr
          endchar
        </CharString>
        <CharString name="O">
          -4 255 102 -81 callgsubr
        </CharString>
        <CharString name="OE">
          167 261 100 46 callgsubr
          -58 -24 callsubr
          426 -79 callgsubr
          58 -93 callsubr
          95 -455 rmoveto
          217 144 71 -144 196 174 71 -247 -19 vlineto
          12 -14 -19 7 -27 hhcurveto
          -77 hlineto
          -64 79 callgsubr
          64 vhcurveto
          78 hlineto
          27 19 7 12 13 hvcurveto
          -19 254 71 vlineto
          endchar
        </CharString>
        <CharString name="Oacute">
          -4 334 789 75 callgsubr
          26 -555 -81 callgsubr
        </CharString>
        <CharString name="Ocircumflex">
          -4 195 738 61 callsubr
          112 -555 -81 callgsubr
        </CharString>
        <CharString name="Odieresis">
          -8 342 751 183 callgsubr
          102 -555 -81 callgsubr
        </CharString>
        <CharString name="Ograve">
          -4 225 657 164 callgsubr
          107 -555 -81 callgsubr
        </CharString>
        <CharString name="Ohungarumlaut">
          -8 288 657 146 callsubr
          86 -555 -81 callgsubr
        </CharString>
        <CharString name="Omacron">
          -4 330 726 298 callsubr
          -75 -556 -81 callgsubr
        </CharString>
        <CharString name="Oslash">
          4 262 98 rmoveto
          -24 -6 -6 -25 vhcurveto
          -62 hlineto
          -18 -7 3 10 -3 hvcurveto
          121 324 rlineto
          -123 124 rmoveto
          23 5 6 25 vhcurveto
          62 hlineto
          19 8 -3 -12 3 hvcurveto
          -122 -325 rlineto
          213 428 rmoveto
          -53 hlineto
          -9 -24 rlineto
          3 -10 -11 1 -13 hhcurveto
          -111 hlineto
          -65 94 callsubr
          -25 6 -20 11 -14 vhcurveto
          -18 -49 rlineto
          53 hlineto
          9 23 rlineto
          -2 10 11 -1 12 hhcurveto
          509 callsubr
          28 31 57 hvcurveto
          450 vlineto
          24 -5 20 -11 14 vhcurveto
          endchar
        </CharString>
        <CharString name="Otilde">
          -4 133 673 rmoveto
          218 callgsubr
          11 callsubr
          vlineto
          122 -556 -81 callgsubr
        </CharString>
        <CharString name="P">
          -19 260 344 rmoveto
          -24 -6 -6 -24 vhcurveto
          -88 239 88 -93 callsubr
          -208 102 rmoveto
          -626 90 242 115 vlineto
          65 28 30 58 hvcurveto
          208 481 callgsubr
          endchar
        </CharString>
        <CharString name="Q">
          -4 138 524 rmoveto
          -62 callgsubr
          58 -93 callsubr
          -422 42 callsubr
          -58 -24 callsubr
          222 -193 rmoveto
          -71 95 rlineto
          39 11 17 28 45 vvcurveto
          450 481 callgsubr
          -111 hlineto
          -65 79 callgsubr
          65 vhcurveto
          57 hlineto
          66 -91 rlineto
          endchar
        </CharString>
        <CharString name="R">
          -1 142 553 65 callsubr
        </CharString>
        <CharString name="Racute">
          -1 336 789 75 callgsubr
          -89 -104 65 callsubr
        </CharString>
        <CharString name="Rcaron">
          -1 247 657 19 callsubr
          -4 -104 65 callsubr
        </CharString>
        <CharString name="S">
          -36 232 102 85 callgsubr
        </CharString>
        <CharString name="Sacute">
          -36 142 657 219 callsubr
          8 78 callsubr
        </CharString>
        <CharString name="Scaron">
          -36 131 657 rmoveto
          101 hlineto
          95 132 rlineto
          -93 hlineto
          -53 -81 -52 81 rlineto
          -94 hlineto
          197 78 callsubr
        </CharString>
        <CharString name="T">
          -87 305 626 rmoveto
          -300 -73 105 -553 90 553 105 hlineto
          endchar
        </CharString>
        <CharString name="Tcaron">
          -87 206 657 19 callsubr
          200 -31 rmoveto
          -300 -73 105 -553 90 553 105 hlineto
          endchar
        </CharString>
        <CharString name="Thorn">
          -12 259 224 46 callgsubr
          -86 236 86 -93 callsubr
          -116 101 rmoveto
          123 -90 -626 90 123 113 vlineto
          65 28 31 57 hvcurveto
          204 481 callgsubr
          endchar
        </CharString>
        <CharString name="U">
          0 257 626 -29 callsubr
        </CharString>
        <CharString name="Uacute">
          0 340 789 75 callgsubr
          22 -31 -29 callsubr
        </CharString>
        <CharString name="Ucircumflex">
          0 198 738 61 callsubr
          111 -31 -29 callsubr
        </CharString>
        <CharString name="Udieresis">
          0 344 751 183 callgsubr
          102 -31 -29 callsubr
        </CharString>
        <CharString name="Ugrave">
          0 237 657 164 callgsubr
          97 -31 -29 callsubr
        </CharString>
        <CharString name="Uhungarumlaut">
          -4 286 657 146 callsubr
          90 -555 rmoveto
          -24 -5 -5 -25 vhcurveto
          -57 -86 callgsubr
          524 -91 -538 248 callsubr
          111 hlineto
          166 callgsubr
          538 -91 vlineto
          endchar
        </CharString>
        <CharString name="Umacron">
          0 333 726 298 callsubr
          -76 -32 -29 callsubr
        </CharString>
        <CharString name="Uogonek">
          0 257 626 rmoveto
          -524 vlineto
          -24 -5 -5 -25 vhcurveto
          -57 -86 callgsubr
          524 -91 -538 248 callsubr
          28 -23 -8 hlineto
          88 callgsubr
          -81 hlineto
          104 callsubr
          86 12 hlineto
          166 callgsubr
          538 vlineto
          endchar
        </CharString>
        <CharString name="Uring">
          0 155 740 16 callgsubr
          92 -32 -29 callsubr
        </CharString>
        <CharString name="V">
          -33 266 626 rmoveto
          -85 -543 -83 543 rlineto
          -93 hlineto
          113 -626 rlineto
          128 hlineto
          113 626 rlineto
          endchar
        </CharString>
        <CharString name="W">
          212 508 626 rmoveto
          -73 -544 -81 544 rlineto
          -100 hlineto
          -81 -544 -70 544 rlineto
          -93 hlineto
          100 -626 rlineto
          125 hlineto
          69 470 70 -470 rlineto
          125 hlineto
          100 626 rlineto
          endchar
        </CharString>
        <CharString name="X">
          -24 235 320 rmoveto
          121 306 rlineto
          -98 hlineto
          -73 -225 -72 225 rlineto
          -100 hlineto
          123 -306 -132 -320 rlineto
          97 hlineto
          84 238 84 -238 rlineto
          100 hlineto
          endchar
        </CharString>
        <CharString name="Y">
          -36 357 626 348 callsubr
        </CharString>
        <CharString name="Yacute">
          -36 325 789 75 callgsubr
          137 -31 348 callsubr
        </CharString>
        <CharString name="Ydieresis">
          -40 327 755 183 callgsubr
          219 -35 348 callsubr
        </CharString>
        <CharString name="Z">
          -84 305 627 rmoveto
          -286 -73 178 callsubr
          endchar
        </CharString>
        <CharString name="Zacute">
          -84 309 789 75 callgsubr
          -185 -103 rmoveto
          178 callsubr
          73 -286 vlineto
          endchar
        </CharString>
        <CharString name="Zcaron">
          -84 213 657 19 callsubr
          -93 -103 rmoveto
          178 callsubr
          73 -286 vlineto
          endchar
        </CharString>
        <CharString name="Zdotaccent">
          -84 218 753 rmoveto
          -107 -96 107 hlineto
          87 -30 rmoveto
          -286 -73 178 callsubr
          endchar
        </CharString>
        <CharString name="a">
          -37 158 73 -59 callsubr
          -39 90 488 vlineto
          endchar
        </CharString>
        <CharString name="aacute">
          -37 328 651 75 callgsubr
          -65 -446 -13 callgsubr
          endchar
        </CharString>
        <CharString name="abreve">
          -37 158 73 -13 callgsubr
          17 163 rmoveto
          101 callsubr
          101 hlineto
          65 29 31 58 hvcurveto
          43 vlineto
          endchar
        </CharString>
        <CharString name="acircumflex">
          -37 182 600 61 callsubr
          28 -446 -13 callgsubr
          endchar
        </CharString>
        <CharString name="acute">
          24 118 519 219 callsubr
          endchar
        </CharString>
        <CharString name="adieresis">
          -37 135 635 rmoveto
          -102 -94 102 hlineto
          23 -468 -13 callgsubr
          -3 147 507 callgsubr
        </CharString>
        <CharString name="ae">
          160 163 73 418 callsubr
          66 vlineto
          98 39 rlineto
          -104 vlineto
          -23 -2 -10 -7 -21 hhcurveto
          199 343 rmoveto
          110 callsubr
          -104 -106 104 252 callgsubr
          -201 rmoveto
          5 10 179 vlineto
          58 405 callgsubr
          -78 hlineto
          392 callsubr
          -88 90 75 -36 callsubr
          35 hlineto
          21 10 -8 -22 2 hvcurveto
          -106 vlineto
          -188 -77 rlineto
          -114 215 callgsubr
          vlineto
          endchar
        </CharString>
        <CharString name="agrave">
          -37 245 519 164 callgsubr
          -10 -446 -59 callsubr
          -39 90 488 vlineto
          endchar
        </CharString>
        <CharString name="amacron">
          -37 310 619 298 callsubr
          -152 -478 -59 callsubr
          -39 90 488 vlineto
          endchar
        </CharString>
        <CharString name="ampersand">
          64 156 71 418 callsubr
          77 vlineto
          32 9 11 21 14 vhcurveto
          24 16 149 -179 rlineto
          -178 456 rmoveto
          -62 callgsubr
          46 -93 callsubr
          -82 vlineto
          -41 -18 -17 -39 -26 vhcurveto
          -6 -5 rlineto
          -23 27 -19 25 28 vvcurveto
          363 -471 rmoveto
          -83 101 rlineto
          1 7 1 7 8 vvcurveto
          142 -73 -77 vlineto
          -115 141 23 15 rlineto
          50 32 26 32 72 vvcurveto
          93 vlineto
          57 -28 31 -64 vhcurveto
          -97 hlineto
          -65 214 callsubr
          -96 vlineto
          -48 32 -39 36 -45 vhcurveto
          -30 -22 rlineto
          -46 -29 -15 -22 -45 vvcurveto
          -104 170 callgsubr
          208 hlineto
          17 15 2 5 12 hvcurveto
          35 -42 rlineto
          endchar
        </CharString>
        <CharString name="aogonek">
          -37 158 73 -49 callgsubr
          60 -235 423 callgsubr
          -39 hlineto
          60 callsubr
          19 -23 -8 vlineto
          423 callsubr
        </CharString>
        <CharString name="approxequal">
          94 326 375 rmoveto
          35 hlineto
          61 24 31 50 hvcurveto
          61 -84 -41 vlineto
          -23 -3 -12 492 callsubr
          -29 -52 hvcurveto
          -61 83 42 vlineto
          22 5 12 24 vhcurveto
          66 12 -77 90 hhcurveto
          -175 vmoveto
          35 hlineto
          61 24 30 51 hvcurveto
          61 -84 -42 vlineto
          -23 -3 -11 492 callsubr
          -30 -51 hvcurveto
          -61 83 42 vlineto
          21 5 13 24 vhcurveto
          66 12 -77 90 hhcurveto
          endchar
        </CharString>
        <CharString name="aring">
          -37 141 610 16 callgsubr
          7 -455 -59 callsubr
          -39 90 488 vlineto
          endchar
        </CharString>
        <CharString name="asciicircum">
          101 187 671 rmoveto
          -132 -354 rlineto
          94 hlineto
          95 270 96 -270 rlineto
          94 hlineto
          -133 354 rlineto
          endchar
        </CharString>
        <CharString name="asciitilde">
          127 344 213 rmoveto
          34 hlineto
          61 24 31 51 hvcurveto
          65 -83 -46 vlineto
          -23 -3 -11 -24 vhcurveto
          -70 -18 81 -83 hhcurveto
          -37 hlineto
          -60 -24 -30 -51 hvcurveto
          -66 83 47 vlineto
          21 5 12 25 vhcurveto
          66 14 -81 90 hhcurveto
          endchar
        </CharString>
        <CharString name="asterisk">
          -77 305 493 rmoveto
          -24 72 -33 -11 -24 -7 -19 -9 -14 -9 rlinecurve
          4 16 3 20 25 vvcurveto
          36 -75 -36 vlineto
          -25 3 -21 4 -16 vhcurveto
          -14 9 -19 9 -24 8 -34 11 rcurveline
          -23 -71 34 -11 24 -8 20 -4 17 -1 rlinecurve
          -13 -11 -14 -15 -15 -20 -22 -29 rcurveline
          62 -44 21 28 15 21 9 19 7 15 rlinecurve
          6 -15 10 -18 14 -20 21 -30 rcurveline
          61 44 -21 29 -15 21 -14 15 -13 10 rlinecurve
          16 2 21 3 23 8 rrcurveto
          endchar
        </CharString>
        <CharString name="at">
          299 233 343 rmoveto
          -176 vlineto
          -56 28 -30 60 vhcurveto
          27 hlineto
          34 27 15 36 5 hvcurveto
          -51 145 vlineto
          62 152 callsubr
          318 vlineto
          58 -29 30 -61 vhcurveto
          -394 hlineto
          -62 -28 -30 -58 hvcurveto
          -469 vlineto
          -57 28 -31 62 vhcurveto
          326 72 -301 hlineto
          -24 -5 6 23 hvcurveto
          442 23 callsubr
          344 hlineto
          25 5 -6 -24 hvcurveto
          -295 vlineto
          -23 -5 -6 -25 vhcurveto
          -44 280 -82 -39 hlineto
          27 -9 -22 12 -30 hhcurveto
          -27 hlineto
          -60 -28 -30 -56 hvcurveto
          85 -11 rmoveto
          23 -54 callsubr
          29 hlineto
          22 10 -8 -26 hvcurveto
          -142 vlineto
          -26 -10 -9 -22 vhcurveto
          -29 hlineto
          -24 -5 6 23 hvcurveto
          endchar
        </CharString>
        <CharString name="atilde">
          -37 113 549 rmoveto
          218 callgsubr
          11 callsubr
          vlineto
          45 -461 -59 callsubr
          -39 90 488 vlineto
          endchar
        </CharString>
        <CharString name="b">
          -37 232 373 callgsubr
          -35 hlineto
          -23 -10 9 26 hvcurveto
          273 vlineto
          26 10 9 23 456 callgsubr
          -6 -23 hvcurveto
          -36 102 rmoveto
          335 callgsubr
          219 -90 -669 90 39 vlineto
          -27 9 22 -12 31 hhcurveto
          35 hlineto
          62 152 callsubr
          312 261 callsubr
        </CharString>
        <CharString name="backslash">
          -7 31 700 rmoveto
          273 -820 rlineto
          84 hlineto
          -273 820 rlineto
          endchar
        </CharString>
        <CharString name="bar">
          -200 54 743 rmoveto
          -861 87 861 vlineto
          endchar
        </CharString>
        <CharString name="braceleft">
          -114 198 682 rmoveto
          22 8 8 24 vhcurveto
          45 71 -82 hlineto
          -67 -19 -37 -53 hvcurveto
          -238 vlineto
          -76 -25 -34 -58 vhcurveto
          -17 -70 17 hlineto
          58 25 -34 -74 hvcurveto
          -241 vlineto
          -54 19 -36 67 vhcurveto
          82 71 -45 hlineto
          -24 -8 8 23 hvcurveto
          254 vlineto
          69 -26 43 -50 6 vhcurveto
          49 7 27 42 72 vvcurveto
          endchar
        </CharString>
        <CharString name="braceright">
          -114 84 431 rmoveto
          -72 26 -42 50 -7 vhcurveto
          -50 -6 -26 -43 -69 vvcurveto
          -254 vlineto
          -23 -8 -8 -24 vhcurveto
          -45 -71 82 hlineto
          67 18 36 54 hvcurveto
          241 vlineto
          74 25 34 59 vhcurveto
          16 70 -16 hlineto
          -59 -25 34 76 hvcurveto
          238 vlineto
          53 -18 37 -67 vhcurveto
          -82 -71 45 hlineto
          24 8 -8 -22 hvcurveto
          endchar
        </CharString>
        <CharString name="bracketleft">
          -86 249 710 rmoveto
          73 -191 -948 191 73 -100 802 vlineto
          endchar
        </CharString>
        <CharString name="bracketright">
          -86 234 783 rmoveto
          -190 -73 99 -802 -99 -73 190 hlineto
          endchar
        </CharString>
        <CharString name="breve">
          24 271 651 rmoveto
          101 callsubr
          101 hlineto
          65 29 31 58 hvcurveto
          43 vlineto
          endchar
        </CharString>
        <CharString name="brokenbar">
          -200 52 250 rmoveto
          -347 91 347 vlineto
          125 vmoveto
          347 -91 -347 vlineto
          endchar
        </CharString>
        <CharString name="bullet">
          -1 67 321 rmoveto
          -72 59 -59 72 72 59 59 72 72 -59 59 -72 -72 -59 -59 -72 vhcurveto
          endchar
        </CharString>
        <CharString name="c">
          -46 320 334 rmoveto
          496 callsubr
          -95 hlineto
          24 callsubr
          vlineto
          endchar
        </CharString>
        <CharString name="cacute">
          -46 321 651 75 callgsubr
          -85 -31 rmoveto
          24 callsubr
          89 496 callsubr
          endchar
        </CharString>
        <CharString name="caron">
          24 160 519 rmoveto
          101 hlineto
          95 132 rlineto
          -93 hlineto
          -53 -81 -52 81 rlineto
          -94 hlineto
          endchar
        </CharString>
        <CharString name="ccaron">
          -46 230 519 19 callsubr
          2 -31 rmoveto
          24 callsubr
          89 496 callsubr
          endchar
        </CharString>
        <CharString name="ccedilla">
          -46 140 266 callgsubr
          180 384 rmoveto
          496 callsubr
          -95 hlineto
          24 callsubr
          vlineto
          endchar
        </CharString>
        <CharString name="cedilla">
          24 206 266 callgsubr
          endchar
        </CharString>
        <CharString name="cent">
          -46 320 334 rmoveto
          496 callsubr
          -1 77 -86 -77 -8 hlineto
          32 callgsubr
          8 -76 86 76 1 hlineto
          166 callgsubr
          66 -89 -52 42 callsubr
          -43 210 callsubr
          43 -93 callsubr
          -52 vlineto
          endchar
        </CharString>
        <CharString name="circumflex">
          24 64 519 287 callsubr
        </CharString>
        <CharString name="colon">
          -232 32 70 rmoveto
          429 callgsubr
          102 vmoveto
          429 callgsubr
          endchar
        </CharString>
        <CharString name="comma">
          308 callgsubr
          endchar
        </CharString>
        <CharString name="commaaccent">
          24 161 -50 rmoveto
          -179 33 vlineto
          257 callsubr
          vlineto
          endchar
        </CharString>
        <CharString name="copyright">
          304 670 341 rmoveto
          184 -61 101 -156 vhcurveto
          -191 hlineto
          -156 -61 -101 -184 hvcurveto
          -63 vlineto
          -184 61 -94 156 vhcurveto
          191 hlineto
          156 61 94 184 hvcurveto
          -400 -210 rmoveto
          -110 -35 79 126 hvcurveto
          73 vlineto
          126 35 88 110 vhcurveto
          175 hlineto
          110 35 -88 -126 hvcurveto
          -73 vlineto
          -126 -35 -79 -110 vhcurveto
          -38 176 rmoveto
          -22 -5 -5 -23 vhcurveto
          -43 hlineto
          -23 -5 5 22 hvcurveto
          148 vlineto
          23 5 5 23 vhcurveto
          43 hlineto
          23 5 -5 -23 hvcurveto
          -25 80 38 vlineto
          53 -27 28 -57 vhcurveto
          -90 hlineto
          -58 -26 -28 -53 hvcurveto
          -174 vlineto
          -52 26 -28 58 vhcurveto
          90 hlineto
          57 27 28 52 hvcurveto
          39 -80 vlineto
          endchar
        </CharString>
        <CharString name="currency">
          87 222 176 rmoveto
          -31 -9 6 34 hvcurveto
          165 vlineto
          35 9 6 31 vhcurveto
          52 hlineto
          32 9 -6 -35 hvcurveto
          -165 vlineto
          -34 -9 -6 -32 vhcurveto
          123 214 rmoveto
          21 -3 17 -6 14 vhcurveto
          44 44 -58 58 -54 -54 rlineto
          1 -7 -8 0 -8 hhcurveto
          -97 hlineto
          -11 -9 -1 -1 -9 hvcurveto
          -55 55 -58 -58 49 -49 rlineto
          -5 -13 -2 -16 -18 vvcurveto
          -182 vlineto
          -16 2 -15 3 -12 vhcurveto
          -47 -47 58 -58 49 49 rlineto
          -2 11 11 -1 13 hhcurveto
          97 hlineto
          10 10 1 1 9 hvcurveto
          48 -48 58 58 -42 42 rlineto
          5 13 2 16 19 vvcurveto
          endchar
        </CharString>
        <CharString name="d">
          -37 272 callsubr
          596 rmoveto
          -219 vlineto
          273 callgsubr
          vlineto
          endchar
        </CharString>
        <CharString name="dagger">
          -35 356 465 rmoveto
          477 callsubr
          -504 90 504 130 hlineto
          endchar
        </CharString>
        <CharString name="daggerdbl">
          -13 367 394 rmoveto
          71 477 callsubr
          -315 -130 -70 130 -162 90 162 130 70 -130 315 vlineto
          endchar
        </CharString>
        <CharString name="dcaron">
          -8 272 callsubr
          377 rmoveto
          273 callgsubr
          -90 vlineto
          134 hmoveto
          -171 29 vlineto
          44 124 rlineto
          47 vlineto
          endchar
        </CharString>
        <CharString name="dcroat">
          -32 163 73 -49 callgsubr
          169 534 rmoveto
          -46 62 -90 -62 -80 -62 80 -96 hlineto
          56 callsubr
          545 46 vlineto
          endchar
        </CharString>
        <CharString name="degree">
          -14 324 539 rmoveto
          57 -27 30 -64 vhcurveto
          -88 hlineto
          -64 -27 -30 -57 hvcurveto
          -110 vlineto
          -56 27 -30 64 vhcurveto
          88 hlineto
          64 27 30 56 hvcurveto
          -84 8 rmoveto
          -23 -5 -5 -25 vhcurveto
          -42 249 callsubr
          95 vlineto
          22 6 6 24 vhcurveto
          42 hlineto
          25 5 -6 -22 hvcurveto
          endchar
        </CharString>
        <CharString name="dieresis">
          24 65 541 278 callgsubr
          endchar
        </CharString>
        <CharString name="divide">
          15 25 276 rmoveto
          362 74 -362 hlineto
          136 151 rmoveto
          -88 90 88 vlineto
          -90 -289 rmoveto
          -87 90 87 vlineto
          endchar
        </CharString>
        <CharString name="dollar">
          -36 159 356 418 callsubr
          139 -36 callsubr
          42 hlineto
          24 6 369 callsubr
          -28 31 -65 vhcurveto
          -5 77 -86 -77 -7 196 callsubr
          -165 vlineto
          -57 27 -32 64 vhcurveto
          74 37 callgsubr
          -153 vlineto
          118 callgsubr
          5 -77 86 77 6 hlineto
          166 callgsubr
          180 vlineto
          57 -28 31 -64 vhcurveto
          endchar
        </CharString>
        <CharString name="dotaccent">
          24 157 537 rmoveto
          107 96 -107 hlineto
          endchar
        </CharString>
        <CharString name="dotlessi">
          193 callgsubr
          endchar
        </CharString>
        <CharString name="dvBH_N">
          360 585 158 callsubr
          5 5 24 vhcurveto
          -293 -234 41 callsubr
          128 -56 callsubr
          72 hlineto
          90 70 rmoveto
          135 vlineto
          -66 callsubr
          -123 268 callsubr
          -153 -4 callsubr
          168 84 -168 vlineto
          -61 29 -28 67 vhcurveto
          459 callsubr
          -61 -27 -25 -52 -3 hvcurveto
          221 vmoveto
          -70 368 70 vlineto
          endchar
        </CharString>
        <CharString name="dvB_N">
          238 463 412 rmoveto
          -234 vlineto
          64 callsubr
          -237 -264 -63 callsubr
          -4 -4 0 -4 hhcurveto
          28 124 rmoveto
          171 callsubr
          102 70 -277 vlineto
          -58 callgsubr
          -306 511 callsubr
          675 70 vlineto
          endchar
        </CharString>
        <CharString name="dvCH_N">
          146 307 -257 rmoveto
          62 callgsubr
          -67 739 rmoveto
          -53 -4 -27 -25 -56 vvcurveto
          -132 -104 callgsubr
          146 hlineto
          -355 70 rmoveto
          -70 78 vlineto
          -34 callgsubr
          168 -60 -90 hlineto
          -57 -30 -26 -59 hvcurveto
          -41 80 29 -56 callsubr
          68 -103 79 231 6 hlineto
          65 32 -52 callsubr
          308 vlineto
          55 -26 26 -52 3 vhcurveto
          75 144 70 vlineto
          endchar
        </CharString>
        <CharString name="dvC_N">
          208 449 310 callgsubr
          -230 rmoveto
          -72 callgsubr
          -56 -82 callsubr
          204 vlineto
          25 6 4 24 1 vhcurveto
          37 70 -219 123 callsubr
          101 hlineto
          22 14 6 14 6 hvcurveto
          -13 16 23 -7 33 hhcurveto
          446 callsubr
          104 70 -279 vlineto
          -58 callgsubr
          -292 511 callsubr
          663 70 vlineto
          endchar
        </CharString>
        <CharString name="dvDDH_DDHA">
          9 317 309 callsubr
          109 70 -446 329 callgsubr
          -201 vlineto
          -32 14 -17 207 callsubr
          -2 -14 -16 -31 vvcurveto
          -178 vlineto
          -61 29 -28 67 vhcurveto
          131 -91 callsubr
          39 vlineto
          62 -29 27 -67 vhcurveto
          -87 -70 63 -93 callsubr
          -18 vlineto
          185 callsubr
          -83 -100 callsubr
          166 -56 callsubr
          108 -91 callsubr
          43 vlineto
          62 -29 27 -67 vhcurveto
          -87 -70 63 26 callsubr
          -21 vlineto
          185 callsubr
          -83 -100 callsubr
          161 -64 callgsubr
          endchar
        </CharString>
        <CharString name="dvDD_GA">
          -21 307 353 callgsubr
          89 70 -416 -52 callgsubr
          -35 10 -24 23 -13 vhcurveto
          -66 256 callsubr
          188 vlineto
          22 14 10 24 34 vvcurveto
          356 callsubr
        </CharString>
        <CharString name="dvDD_N">
          -21 211 -231 rmoveto
          80 246 hlineto
          20 14 9 23 33 -6 callsubr
          133 142 89 70 -416 -70 237 -74 -71 hlineto
          155 callgsubr
          hlineto
          87 -129 159 callgsubr
        </CharString>
        <CharString name="dvDH_N">
          305 514 412 rmoveto
          -234 vlineto
          64 callsubr
          -120 -230 rmoveto
          -66 callgsubr
          23 13 428 callsubr
          16 24 -7 33 hhcurveto
          74 -91 callsubr
          245 128 70 -303 501 callsubr
          395 70 vlineto
          endchar
        </CharString>
        <CharString name="dvD_N">
          -23 241 -154 rmoveto
          86 425 -86 -91 hlineto
          -24 -8 -8 -23 vhcurveto
          -42 231 callgsubr
          60 245 callsubr
          -71 -71 vlineto
          -57 -29 -26 -59 hvcurveto
          -41 79 29 -64 callgsubr
          48 hlineto
          91 -131 159 callgsubr
        </CharString>
        <CharString name="dvGH_N">
          250 389 301 callgsubr
          -687 -70 77 vlineto
          290 callgsubr
          137 hlineto
          22 14 428 callsubr
          16 24 -7 33 hhcurveto
          459 callsubr
          -58 callgsubr
          -215 vlineto
          -72 callgsubr
          -98 52 callsubr
          30 7 2 37 vhcurveto
          endchar
        </CharString>
        <CharString name="dvG_N">
          359 583 412 64 callgsubr
          -254 -249 rmoveto
          -87 callgsubr
          601 478 rmoveto
          -817 -70 -97 callsubr
          481 vlineto
          endchar
        </CharString>
        <CharString name="dvJH_N">
          359 497 383 rmoveto
          -2 callgsubr
          23 vhcurveto
          57 -234 hlineto
          -32 callgsubr
          -183 236 rmoveto
          142 483 70 -821 430 callsubr
          -93 vlineto
          -62 callsubr
          85 -85 hlineto
          -77 callgsubr
          245 123 70 -298 vlineto
          -58 callgsubr
          -77 -249 vlineto
          -1 callsubr
          24 hvcurveto
          36 -79 callgsubr
          endchar
        </CharString>
        <CharString name="dvJ_N">
          368 581 158 callsubr
          5 5 24 vhcurveto
          271 70 rmoveto
          -571 264 callsubr
          206 callsubr
          -230 464 callgsubr
          245 124 vlineto
          -815 214 rmoveto
          -70 815 70 vlineto
          endchar
        </CharString>
        <CharString name="dvKH_N">
          496 694 412 rmoveto
          -234 vlineto
          -25 -6 407 callsubr
          -120 -195 rmoveto
          157 callgsubr
          142 70 -317 vlineto
          -58 callgsubr
          -538 511 callsubr
          188 vlineto
          -89 callgsubr
          645 70 hlineto
          endchar
        </CharString>
        <CharString name="dvK_N">
          356 594 382 rmoveto
          -204 vlineto
          185 callsubr
          -26 -100 callsubr
          175 -79 callgsubr
          266 487 callgsubr
          -823 -70 249 -376 vlineto
          -107 callgsubr
          350 vlineto
          25 8 7 24 vhcurveto
          68 hlineto
          -1 -5 0 -5 -5 vvcurveto
          -200 464 callgsubr
          215 119 70 -448 vlineto
          282 callgsubr
          vlineto
          endchar
        </CharString>
        <CharString name="dvM_N">
          370 577 178 76 callsubr
          577 194 rmoveto
          70 -807 -70 597 -124 -451 121 callgsubr
          -180 -81 callsubr
          195 184 callsubr
          -180 182 callsubr
          195 119 70 -119 124 vlineto
          endchar
        </CharString>
        <CharString name="dvMatraI.a33">
          1176 822 rmoveto
          -1036 -106 callgsubr
          968 hlineto
          27 5 -84 callsubr
        </CharString>
        <CharString name="dvMatraI.a34">
          1200 822 rmoveto
          -1060 -106 callgsubr
          992 141 callsubr
          -32 488 callsubr
        </CharString>
        <CharString name="dvMatraI.a35">
          1224 822 rmoveto
          -1084 -106 callgsubr
          1016 hlineto
          27 5 -84 callsubr
        </CharString>
        <CharString name="dvMatraI.a36">
          1248 822 rmoveto
          -1108 -106 callgsubr
          1040 hlineto
          27 5 -84 callsubr
        </CharString>
        <CharString name="dvMatraI.a37">
          1272 822 rmoveto
          -1132 -106 callgsubr
          1064 hlineto
          27 5 -84 callsubr
        </CharString>
        <CharString name="dvMatraI.a38">
          1296 822 rmoveto
          -1156 -106 callgsubr
          1087 hlineto
          27 6 -84 callsubr
        </CharString>
        <CharString name="dvMatraI.a39">
          1320 822 rmoveto
          -1180 -106 callgsubr
          1112 hlineto
          26 6 -84 callsubr
        </CharString>
        <CharString name="dvMatraI.a40">
          1343 822 rmoveto
          -1203 -106 callgsubr
          1135 hlineto
          27 5 -84 callsubr
        </CharString>
        <CharString name="dvMatraI.a41">
          1367 822 rmoveto
          -1227 -106 callgsubr
          1159 hlineto
          27 5 -84 callsubr
        </CharString>
        <CharString name="dvMatraI.a42">
          1391 822 rmoveto
          -1251 -106 callgsubr
          1183 hlineto
          26 6 -84 callsubr
        </CharString>
        <CharString name="dvMatraI.a43">
          1415 822 rmoveto
          -1275 -106 callgsubr
          1207 hlineto
          26 6 -84 callsubr
        </CharString>
        <CharString name="dvMatraI.a44">
          1439 822 rmoveto
          -1299 -106 callgsubr
          1231 hlineto
          27 5 -84 callsubr
        </CharString>
        <CharString name="dvMatraI.a45">
          1462 822 rmoveto
          -1322 -106 callgsubr
          1254 hlineto
          27 5 -84 callsubr
        </CharString>
        <CharString name="dvMatraI.a46">
          1487 822 rmoveto
          -1347 -106 callgsubr
          1278 141 callsubr
          -31 26 -57 vhcurveto
          endchar
        </CharString>
        <CharString name="dvMatraI.a47">
          1510 822 rmoveto
          -1370 -106 callgsubr
          1302 hlineto
          26 6 -84 callsubr
        </CharString>
        <CharString name="dvMatraI.a48">
          1534 822 rmoveto
          -1394 -106 callgsubr
          1326 hlineto
          27 5 -84 callsubr
        </CharString>
        <CharString name="dvMatraI.a49">
          1557 822 rmoveto
          -1417 -106 callgsubr
          1349 141 callsubr
          -32 488 callsubr
        </CharString>
        <CharString name="dvMatraI.a50">
          1582 822 rmoveto
          -1442 -106 callgsubr
          1373 141 callsubr
          -31 26 -57 vhcurveto
          endchar
        </CharString>
        <CharString name="dvNG_GA">
          -3 307 303 180 callgsubr
          -35 10 -24 23 -13 vhcurveto
          -66 256 callsubr
          188 vlineto
          22 14 10 24 34 vvcurveto
          292 callsubr
        </CharString>
        <CharString name="dvNG_MA">
          183 400 409 rmoveto
          -83 -95 83 hlineto
          45 -235 rmoveto
          -139 152 hlineto
          57 -27 27 -65 vhcurveto
          -56 248 callgsubr
          41 -56 callsubr
          135 142 152 hlineto
          163 70 rmoveto
          -628 -70 223 -74 -72 -29 callgsubr
          -65 vlineto
          8 callsubr
          55 -50 callgsubr
          -23 hvcurveto
          -83 207 callgsubr
          -38 hlineto
          -23 -5 5 23 hvcurveto
          46 -90 -58 vlineto
          -57 27 -27 64 vhcurveto
          66 hlineto
          10 10 1 2 9 hvcurveto
          -123 90 88 139 -143 90 691 73 vlineto
          endchar
        </CharString>
        <CharString name="dvNY_CA">
          359 776 626 rmoveto
          -796 -70 634 -376 hlineto
          -24 -8 -8 -24 vhcurveto
          -53 -100 callsubr
          204 vlineto
          28 7 2 35 vhcurveto
          25 70 -215 -70 68 334 callgsubr
          -54 -115 69 vlineto
          -46 callgsubr
          89 115 -89 167 callsubr
        </CharString>
        <CharString name="dvN_N">
          335 563 158 callsubr
          6 5 23 vhcurveto
          -296 -234 -103 callsubr
          552 70 rmoveto
          -636 hlineto
          60 callgsubr
          -230 464 callgsubr
          245 109 vlineto
          -782 214 rmoveto
          -70 782 70 vlineto
          endchar
        </CharString>
        <CharString name="dvPH_N">
          376 235 36 callsubr
          366 -144 rmoveto
          -234 vlineto
          390 callsubr
          249 144 rmoveto
          70 -813 -70 66 -389 vlineto
          201 callsubr
          102 70 -431 vlineto
          26 callgsubr
          85 vlineto
          endchar
        </CharString>
        <CharString name="dvP_N">
          197 336 301 callgsubr
          -634 -70 66 281 callgsubr
          91 hlineto
          23 13 428 callsubr
          16 24 -7 33 hhcurveto
          459 callsubr
          -64 -28 17 callsubr
          -215 vlineto
          -72 callgsubr
          -45 -94 callsubr
          378 vlineto
          endchar
        </CharString>
        <CharString name="dvSHA_MatraVocalicR">
          136 141 529 181 callgsubr
          341 -346 rmoveto
          519 71 70 -161 -272 -96 97 callgsubr
          142 -180 -4 hlineto
          -64 -26 -28 -57 hvcurveto
          -62 vlineto
          8 callsubr
          137 71 -109 249 callsubr
          36 -36 callsubr
          endchar
        </CharString>
        <CharString name="dvSH_VA.aSimp">
          357 142 628 rmoveto
          -106 callsubr
          541 -2 rmoveto
          -417 -70 255 -376 hlineto
          50 callsubr
          -89 90 -83 callsubr
          endchar
        </CharString>
        <CharString name="dvS_N">
          367 590 178 rmoveto
          -25 -6 407 callsubr
          56 hlineto
          194 70 rmoveto
          -278 34 callsubr
          470 70 -803 7 callgsubr
          29 -28 67 vhcurveto
          74 hlineto
          68 29 28 61 hvcurveto
          245 103 vlineto
          endchar
        </CharString>
        <CharString name="dvTH_N">
          295 511 412 rmoveto
          -234 vlineto
          64 callsubr
          -120 -230 rmoveto
          21 callgsubr
          16 24 -7 33 hhcurveto
          74 -91 callsubr
          245 111 70 -286 501 callsubr
          378 70 vlineto
          endchar
        </CharString>
        <CharString name="dvTTH_N">
          -4 142 382 rmoveto
          119 callgsubr
          -282 vlineto
          185 callsubr
          -55 -100 callsubr
          83 -331 rmoveto
          80 240 hlineto
          29 13 13 26 41 490 callgsubr
          169 70 -433 -70 174 -74 -6 hlineto
          285 callsubr
          hlineto
          88 -129 159 callgsubr
        </CharString>
        <CharString name="dvTTH_TTHA">
          9 283 281 46 callgsubr
          -82 -86 callgsubr
          105 -64 callgsubr
          82 26 callsubr
          -448 vmoveto
          185 callsubr
          -82 465 callgsubr
          82 26 callsubr
          129 513 rmoveto
          70 -432 -70 184 -71 -16 vlineto
          -67 -29 -28 -61 hvcurveto
          -125 vlineto
          -61 29 -28 67 vhcurveto
          16 -40 -16 304 callgsubr
          -125 vlineto
          404 callsubr
          128 415 callgsubr
          125 vlineto
          62 -29 27 -67 vhcurveto
          -20 40 20 -91 callsubr
          125 vlineto
          61 -29 28 -67 vhcurveto
          -20 71 hlineto
          endchar
        </CharString>
        <CharString name="dvTT_GA">
          -31 317 412 239 callsubr
          -35 10 -25 21 -14 vhcurveto
          -68 256 callsubr
          192 vlineto
          19 15 9 23 34 vvcurveto
          114 -90 -103 vlineto
          -25 -6 -5 -24 vhcurveto
          -30 -84 callgsubr
          endchar
        </CharString>
        <CharString name="dvTT_N">
          -31 220 -231 rmoveto
          80 253 hlineto
          15 15 7 22 30 200 callsubr
          -61 29 -28 67 vhcurveto
          72 -60 -59 243 callgsubr
          37 hlineto
          88 -129 159 callgsubr
        </CharString>
        <CharString name="dvT_KH_NA">
          829 904 141 callgsubr
          6 5 23 vhcurveto
          57 hlineto
          335 214 rmoveto
          -1259 52 callgsubr
          242 73 -220 354 callsubr
          585 195 callsubr
          -180 vlineto
          254 callgsubr
          57 hlineto
          21 14 5 11 8 hvcurveto
          -33 11 29 -15 50 hhcurveto
          74 hlineto
          67 435 callgsubr
        </CharString>
        <CharString name="dvT_N">
          221 422 158 callsubr
          6 5 23 vhcurveto
          273 70 rmoveto
          -502 -88 callgsubr
          84 326 callsubr
          74 hlineto
          67 29 28 61 hvcurveto
          245 126 vlineto
          -658 214 rmoveto
          -70 658 70 vlineto
          endchar
        </CharString>
        <CharString name="dvT_R_KA">
          380 797 488 callgsubr
          -817 -70 478 -376 vlineto
          -104 callsubr
          -56 hlineto
          -65 -27 -27 -58 hvcurveto
          -130 -9 vlineto
          511 callgsubr
          -16 callsubr
          23 -31 hlineto
          -9 callsubr
        </CharString>
        <CharString name="dvT_S_NA">
          720 975 482 rmoveto
          -257 34 callsubr
          450 hlineto
          -172 -378 rmoveto
          64 callsubr
          57 hlineto
          334 214 rmoveto
          -1157 -70 431 293 callsubr
          43 callsubr
          181 280 -111 vlineto
          -61 29 -28 68 391 callsubr
        </CharString>
        <CharString name="dvV_N">
          187 412 310 callgsubr
          -233 rmoveto
          157 callsubr
          102 70 -277 vlineto
          -58 callgsubr
          -255 511 callsubr
          624 70 vlineto
          endchar
        </CharString>
        <CharString name="dvY_N">
          280 418 383 rmoveto
          -2 callgsubr
          23 vhcurveto
          57 -234 hlineto
          -32 callgsubr
          279 448 rmoveto
          -717 -70 131 102 callgsubr
          178 hlineto
          22 13 6 15 7 hvcurveto
          -14 16 23 -7 33 505 callsubr
          102 70 -277 vlineto
          -58 callgsubr
          -215 vlineto
          -79 callsubr
          463 hlineto
          endchar
        </CharString>
        <CharString name="e">
          -37 130 282 -90 callgsubr
        </CharString>
        <CharString name="eacute">
          -37 327 651 75 callgsubr
          -92 -237 -90 callgsubr
        </CharString>
        <CharString name="ecaron">
          -37 235 519 19 callsubr
          -4 -237 -90 callgsubr
        </CharString>
        <CharString name="ecircumflex">
          -39 186 600 61 callsubr
          -4 -237 -90 callgsubr
        </CharString>
        <CharString name="edieresis">
          -39 325 635 183 callgsubr
          -6 -259 -90 callgsubr
        </CharString>
        <CharString name="edotaccent">
          -37 241 633 rmoveto
          -107 -96 107 hlineto
          -111 -255 -90 callgsubr
        </CharString>
        <CharString name="egrave">
          -37 217 519 164 callgsubr
          -10 -237 -90 callgsubr
        </CharString>
        <CharString name="eight">
          47 callgsubr
        </CharString>
        <CharString name="ellipsis">
          158 52 hmoveto
          109 119 -109 hlineto
          195 -119 rmoveto
          108 119 -108 hlineto
          194 -119 rmoveto
          109 119 -109 hlineto
          endchar
        </CharString>
        <CharString name="emacron">
          -37 313 619 298 callsubr
          -183 -269 -90 callgsubr
        </CharString>
        <CharString name="emdash">
          139 10 259 rmoveto
          514 70 -514 hlineto
          endchar
        </CharString>
        <CharString name="endash">
          23 25 259 rmoveto
          347 70 -347 hlineto
          endchar
        </CharString>
        <CharString name="eogonek">
          -37 130 282 rmoveto
          106 vlineto
          23 6 6 24 vhcurveto
          49 220 callgsubr
          -106 vlineto
          -103 206 88 callsubr
          20 -23 -8 hlineto
          88 callgsubr
          -81 hlineto
          104 callsubr
          86 5 hlineto
          171 callgsubr
          53 -88 -40 vlineto
          -24 -6 -6 -24 vhcurveto
          -46 hlineto
          -24 -6 6 23 hvcurveto
          116 197 183 305 callgsubr
          -65 vhcurveto
          endchar
        </CharString>
        <CharString name="equal">
          23 29 365 rmoveto
          362 76 -362 hlineto
          -256 vmoveto
          362 76 -362 hlineto
          endchar
        </CharString>
        <CharString name="eth">
          -19 241 373 callgsubr
          -53 -86 callgsubr
          214 -36 callsubr
          80 hlineto
          2 -15 1 -15 -15 vvcurveto
          77 266 rmoveto
          55 vlineto
          -89 -32 -11 14 -12 12 -11 11 rlinecurve
          -125 hlineto
          24 -19 24 -23 23 -27 -62 -22 rcurveline
          -55 vlineto
          95 34 19 -29 17 -33 12 -36 rlinecurve
          -91 hlineto
          -64 -29 -31 -58 hvcurveto
          -239 170 callgsubr
          106 hlineto
          166 callgsubr
          221 vlineto
          96 -31 80 -39 60 vhcurveto
          endchar
        </CharString>
        <CharString name="exclam">
          -188 50 626 rmoveto
          17 -422 rlineto
          75 hlineto
          17 422 rlineto
          -106 -626 rmoveto
          429 callgsubr
          endchar
        </CharString>
        <CharString name="exclamdown">
          -188 53 365 rmoveto
          429 callgsubr
          106 -626 rmoveto
          -17 422 rlineto
          -75 hlineto
          -17 -422 rlineto
          endchar
        </CharString>
        <CharString name="f">
          -175 217 593 rmoveto
          76 -69 vlineto
          233 callgsubr
          -93 -49 -73 49 -415 90 415 72 73 -72 76 -36 callsubr
          endchar
        </CharString>
        <CharString name="fi">
          -21 333 488 rmoveto
          -189 77 hlineto
          23 6 6 24 vhcurveto
          20 75 -46 196 callsubr
          -93 -49 -73 49 -415 89 415 99 -415 90 vlineto
          -90 669 rmoveto
          -75 90 75 vlineto
          endchar
        </CharString>
        <CharString name="five">
          144 callgsubr
        </CharString>
        <CharString name="fl">
          -21 243 669 rmoveto
          -181 -99 77 vlineto
          23 6 6 24 vhcurveto
          20 75 -46 196 callsubr
          -93 -49 -73 49 -415 89 415 99 -415 90 669 vlineto
          endchar
        </CharString>
        <CharString name="florin">
          -44 307 592 rmoveto
          77 -74 vlineto
          -64 -22 -31 -57 -7 hvcurveto
          -12 -93 rlineto
          -75 -73 65 hlineto
          -58 -451 rlineto
          -24 -3 -3 -5 -24 hhcurveto
          -47 -77 74 hlineto
          64 21 31 57 8 hvcurveto
          61 469 rlineto
          96 73 -87 hlineto
          10 75 rlineto
          24 3 3 5 24 hhcurveto
          endchar
        </CharString>
        <CharString name="four">
          239 callgsubr
        </CharString>
        <CharString name="fraction">
          259 callgsubr
        </CharString>
        <CharString name="g">
          -37 158 79 92 callgsubr
        </CharString>
        <CharString name="gbreve">
          -37 158 79 rmoveto
          -24 -6 6 23 hvcurveto
          278 365 callsubr
          -266 401 callsubr
          370 rmoveto
          77 callsubr
          -90 vlineto
          14 163 rmoveto
          101 callsubr
          101 hlineto
          65 29 31 58 hvcurveto
          43 vlineto
          endchar
        </CharString>
        <CharString name="germandbls">
          80 200 151 rmoveto
          -63 271 callgsubr
          63 vhcurveto
          64 hlineto
          64 27 31 57 hvcurveto
          102 vlineto
          57 -29 31 -64 49 callsubr
          37 -36 callsubr
          18 hlineto
          56 24 24 49 hvcurveto
          67 vlineto
          57 -29 30 -62 vhcurveto
          -188 hlineto
          -64 -27 -31 -57 hvcurveto
          -512 90 495 vlineto
          24 7 6 24 vhcurveto
          129 hlineto
          24 5 -6 -24 hvcurveto
          -31 vlineto
          -21 -6 -3 -30 -57 -31 -27 -59 vhcurveto
          -56 vlineto
          -58 27 -31 64 vhcurveto
          38 37 callgsubr
          -81 -14 callgsubr
          -11 hlineto
          -24 -5 6 23 hvcurveto
          52 vlineto
          endchar
        </CharString>
        <CharString name="grave">
          24 216 651 410 callsubr
        </CharString>
        <CharString name="greater">
          23 306 314 rmoveto
          -277 -87 rlineto
          -81 vlineto
          362 122 rlineto
          92 vlineto
          -362 120 rlineto
          -80 vlineto
          endchar
        </CharString>
        <CharString name="greaterequal">
          58 320 371 rmoveto
          -275 -77 rlineto
          -79 vlineto
          365 123 rlineto
          71 vlineto
          -365 115 rlineto
          -77 vlineto
          -332 vmoveto
          365 69 -365 hlineto
          endchar
        </CharString>
        <CharString name="guillemotleft">
          93 156 104 rmoveto
          94 hlineto
          -120 154 120 156 rlineto
          -94 hlineto
          -119 -155 rlineto
          321 -155 rmoveto
          95 hlineto
          -121 154 121 156 rlineto
          -95 hlineto
          -118 -155 rlineto
          endchar
        </CharString>
        <CharString name="guillemotright">
          93 250 259 rmoveto
          -119 155 rlineto
          -94 hlineto
          121 -156 -121 -154 rlineto
          94 hlineto
          322 155 rmoveto
          -119 155 rlineto
          -94 hlineto
          120 -156 -120 -154 rlineto
          94 hlineto
          endchar
        </CharString>
        <CharString name="guilsinglleft">
          -107 156 104 rmoveto
          96 hlineto
          -120 154 120 156 rlineto
          -96 hlineto
          -119 -155 rlineto
          endchar
        </CharString>
        <CharString name="guilsinglright">
          -106 252 259 rmoveto
          -119 155 rlineto
          -96 hlineto
          121 -156 -121 -154 rlineto
          96 hlineto
          endchar
        </CharString>
        <CharString name="h">
          -32 196 488 rmoveto
          335 callgsubr
          220 -90 -669 90 380 vlineto
          26 10 9 23 vhcurveto
          35 -93 callsubr
          -386 90 399 261 callsubr
        </CharString>
        <CharString name="hungarumlaut">
          24 184 519 rmoveto
          66 hlineto
          106 132 rlineto
          -90 hlineto
          -201 -132 rmoveto
          66 hlineto
          106 132 rlineto
          -90 hlineto
          endchar
        </CharString>
        <CharString name="hyphen">
          468 callgsubr
        </CharString>
        <CharString name="i">
          193 callgsubr
          -2 581 rmoveto
          94 89 -94 hlineto
          endchar
        </CharString>
        <CharString name="iacute">
          193 callgsubr
          3 519 219 callsubr
          endchar
        </CharString>
        <CharString name="icircumflex">
          193 callgsubr
          -101 519 287 callsubr
        </CharString>
        <CharString name="idieresis">
          193 callgsubr
          -101 541 278 callgsubr
          endchar
        </CharString>
        <CharString name="igrave">
          193 callgsubr
          2 651 410 callsubr
        </CharString>
        <CharString name="imacron">
          193 callgsubr
          -89 551 399 callgsubr
        </CharString>
        <CharString name="infinity">
          193 477 301 rmoveto
          -26 -3 -8 -28 vhcurveto
          -32 hlineto
          -21 -10 8 15 -11 hvcurveto
          -41 54 37 60 rlineto
          16 12 7 10 17 hhcurveto
          42 hlineto
          28 3 -10 -24 hvcurveto
          -333 -129 rmoveto
          -28 -3 8 26 hvcurveto
          94 vlineto
          24 3 10 28 vhcurveto
          22 hlineto
          27 10 -12 -22 16 hvcurveto
          36 -52 -31 -47 rlineto
          -15 -10 -18 -14 -21 hhcurveto
          239 227 rmoveto
          -60 -10 -13 -53 -34 hvcurveto
          -17 -26 -22 31 rlineto
          45 -33 -16 16 -57 hhcurveto
          -37 hlineto
          -65 -26 -34 -51 hvcurveto
          -121 vlineto
          -53 26 -33 65 vhcurveto
          32 hlineto
          71 20 12 63 39 hvcurveto
          5 8 17 -25 rlineto
          -48 35 19 -10 57 hhcurveto
          38 hlineto
          67 25 33 53 hvcurveto
          121 vlineto
          51 -25 34 -67 vhcurveto
          endchar
        </CharString>
        <CharString name="integral">
          -104 194 619 rmoveto
          23 5 6 25 vhcurveto
          47 77 -74 hlineto
          -64 -29 -31 -58 hvcurveto
          -653 vlineto
          -23 -3 -3 -6 -24 hhcurveto
          -48 -77 75 hlineto
          64 29 31 58 hvcurveto
          endchar
        </CharString>
        <CharString name="iogonek">
          -219 136 670 rmoveto
          -94 -89 94 hlineto
          -65 -743 423 callgsubr
          -488 19 -23 -8 hlineto
          423 callsubr
        </CharString>
        <CharString name="itfLogo">
          1251 147 hmoveto
          265 callgsubr
          236 -634 rmoveto
          265 callgsubr
          236 -634 rmoveto
          265 callgsubr
          -410 vmoveto
          196 185 -196 hlineto
          endchar
        </CharString>
        <CharString name="itfStar">
          275 663 452 rmoveto
          -28 -200 -6 -2 -34 hvcurveto
          -66 246 -8 -27 -53 -188 -8 -31 rlinecurve
          -261 8 25 -15 168 -108 28 -17 rlinecurve
          -96 -247 24 20 152 128 29 20 rlinecurve
          204 -168 -11 28 -71 189 -12 30 rlinecurve
          endchar
        </CharString>
        <CharString name="j">
          -219 44 -38 rmoveto
          -23 -6 -6 -24 vhcurveto
          -18 -71 45 hlineto
          64 29 30 58 hvcurveto
          538 -90 vlineto
          -2 93 rmoveto
          94 89 -94 hlineto
          endchar
        </CharString>
        <CharString name="k">
          -40 44 hmoveto
          90 669 -90 hlineto
          310 -181 382 callsubr
        </CharString>
        <CharString name="l">
          -219 134 hmoveto
          484 callsubr
          endchar
        </CharString>
        <CharString name="lacute">
          -219 50 700 219 callsubr
          2 -832 rmoveto
          484 callsubr
          endchar
        </CharString>
        <CharString name="lcaron">
          -187 178 669 rmoveto
          -171 30 vlineto
          43 124 rlineto
          47 vlineto
          -117 -669 rmoveto
          484 callsubr
          endchar
        </CharString>
        <CharString name="less">
          23 391 400 rmoveto
          80 vlineto
          -362 -120 rlineto
          -92 vlineto
          362 -122 rlineto
          81 vlineto
          -277 87 rlineto
          endchar
        </CharString>
        <CharString name="lessequal">
          58 402 447 rmoveto
          77 vlineto
          -365 -115 rlineto
          -71 vlineto
          365 -123 rlineto
          79 vlineto
          -276 77 rlineto
          276 -187 rmoveto
          -365 -69 365 hlineto
          endchar
        </CharString>
        <CharString name="logicalnot">
          63 416 400 rmoveto
          -382 -91 311 -148 71 hlineto
          endchar
        </CharString>
        <CharString name="lozenge">
          102 254 82 rmoveto
          -110 232 110 231 110 -231 rlineto
          -70 312 rmoveto
          -81 hlineto
          -161 -312 161 -314 rlineto
          81 hlineto
          162 314 rlineto
          endchar
        </CharString>
        <CharString name="lslash">
          -209 233 460 rmoveto
          -94 -44 rlineto
          253 -90 -294 vlineto
          -83 -39 rlineto
          -71 vlineto
          83 39 rlineto
          -304 90 346 vlineto
          94 44 rlineto
          endchar
        </CharString>
        <CharString name="m">
          151 384 488 rmoveto
          -36 -26 -15 -30 -8 hvcurveto
          29 -12 -27 16 -44 hhcurveto
          -35 hlineto
          317 callgsubr
          -488 90 380 vlineto
          26 10 9 23 vhcurveto
          35 -93 callsubr
          -386 90 380 vlineto
          26 10 9 22 vhcurveto
          36 37 callgsubr
          -386 90 399 vlineto
          58 -28 31 -62 vhcurveto
          endchar
        </CharString>
        <CharString name="macron">
          24 76 551 399 callgsubr
        </CharString>
        <CharString name="minus">
          43 23 276 rmoveto
          362 74 -362 hlineto
          endchar
        </CharString>
        <CharString name="multiply">
          -19 354 420 rmoveto
          -56 56 -109 -109 -109 109 -56 -56 109 -109 -109 -109 56 -56 109 109 109 -109 56 56 -109 109 rlineto
          endchar
        </CharString>
        <CharString name="n">
          -32 196 488 25 callsubr
        </CharString>
        <CharString name="nacute">
          -32 323 651 75 callgsubr
          -22 -31 25 callsubr
        </CharString>
        <CharString name="ncaron">
          -32 226 519 19 callsubr
          71 -31 25 callsubr
        </CharString>
        <CharString name="nine">
          89 callgsubr
        </CharString>
        <CharString name="notequal">
          89 442 319 rmoveto
          73 -127 vlineto
          63 131 rlineto
          -67 hlineto
          -63 -131 rlineto
          -203 -73 168 hlineto
          -3 -6 rlineto
          -165 -73 130 hlineto
          -66 -136 rlineto
          66 hlineto
          66 136 rlineto
          201 73 -166 hlineto
          3 6 rlineto
          endchar
        </CharString>
        <CharString name="ntilde">
          -32 112 549 rmoveto
          218 callgsubr
          11 callsubr
          vlineto
          84 -46 25 callsubr
        </CharString>
        <CharString name="numbersign">
          99 290 230 rmoveto
          -113 hlineto
          29 166 rlineto
          114 hlineto
          146 hmoveto
          69 -54 vlineto
          29 161 rlineto
          -80 hlineto
          -29 -161 rlineto
          -114 hlineto
          29 161 rlineto
          -80 hlineto
          -29 -161 rlineto
          -74 -69 62 hlineto
          -30 -166 rlineto
          -66 -69 54 hlineto
          -29 -161 rlineto
          81 hlineto
          29 161 rlineto
          113 hlineto
          -29 -161 rlineto
          80 hlineto
          29 161 rlineto
          75 69 -63 hlineto
          30 166 rlineto
          endchar
        </CharString>
        <CharString name="o">
          -27 242 101 -80 callsubr
        </CharString>
        <CharString name="oacute">
          -27 326 651 75 callgsubr
          21 -418 -80 callsubr
        </CharString>
        <CharString name="ocircumflex">
          -27 183 600 61 callsubr
          111 -418 -80 callsubr
        </CharString>
        <CharString name="odieresis">
          -27 330 635 183 callgsubr
          101 -440 -80 callsubr
        </CharString>
        <CharString name="oe">
          187 320 283 rmoveto
          104 -79 callgsubr
          48 37 callgsubr
          -104 vlineto
          -195 -180 rmoveto
          -23 -2 -10 -7 -21 hhcurveto
          -35 hlineto
          30 callsubr
          21 10 -8 -22 2 hvcurveto
          113 103 rmoveto
          392 callsubr
          -311 215 callgsubr
          195 184 vlineto
          58 405 callgsubr
          endchar
        </CharString>
        <CharString name="ogonek">
          24 222 -162 rmoveto
          104 callsubr
          97 -71 -34 -8 hlineto
          423 callsubr
        </CharString>
        <CharString name="ograve">
          -27 220 519 164 callgsubr
          99 -418 -80 callsubr
        </CharString>
        <CharString name="ohungarumlaut">
          -27 276 519 146 callsubr
          85 -418 -80 callsubr
        </CharString>
        <CharString name="omacron">
          -27 316 619 298 callsubr
          -74 -450 -80 callsubr
        </CharString>
        <CharString name="one">
          424 callgsubr
        </CharString>
        <CharString name="onesuperior">
          -252 111 626 rmoveto
          -100 -47 39 -297 61 hlineto
          endchar
        </CharString>
        <CharString name="ordfeminine">
          -140 107 334 rmoveto
          -18 -4 4 17 hvcurveto
          200 vlineto
          17 4 3 18 vhcurveto
          37 hlineto
          16 6 -7 -18 hvcurveto
          -192 vlineto
          -18 -6 -6 -16 vhcurveto
          23 292 rmoveto
          -27 vlineto
          18 -6 -15 9 -22 hhcurveto
          -35 hlineto
          -44 -20 -21 -42 hvcurveto
          -218 vlineto
          -42 20 -21 44 vhcurveto
          36 hlineto
          21 14 8 16 6 hvcurveto
          -24 61 344 vlineto
          endchar
        </CharString>
        <CharString name="ordmasculine">
          -149 162 350 rmoveto
          -16 -4 -4 -18 vhcurveto
          -33 hlineto
          -18 -3 4 16 hvcurveto
          208 vlineto
          17 3 4 18 vhcurveto
          33 hlineto
          18 4 -4 -17 hvcurveto
          -71 68 rmoveto
          -46 -19 -21 -42 hvcurveto
          -218 vlineto
          -42 19 -21 46 vhcurveto
          66 hlineto
          45 20 21 42 hvcurveto
          218 vlineto
          42 -20 21 -45 vhcurveto
          endchar
        </CharString>
        <CharString name="oslash">
          -19 248 96 rmoveto
          -25 -5 -5 -25 vhcurveto
          -58 hlineto
          -12 -7 1 4 -5 hvcurveto
          112 244 rlineto
          -119 77 rmoveto
          7 callsubr
          25 vhcurveto
          58 hlineto
          12 7 -1 -4 4 hvcurveto
          -112 -245 rlineto
          208 336 rmoveto
          -54 hlineto
          -10 -23 rlineto
          2 -10 -10 1 -11 hhcurveto
          -107 hlineto
          -64 -28 283 callsubr
          -27 6 -20 13 -15 vhcurveto
          -21 -46 rlineto
          53 hlineto
          11 23 rlineto
          -2 9 10 -1 11 hhcurveto
          107 hlineto
          65 28 31 57 hvcurveto
          311 vlineto
          27 -6 21 -13 15 vhcurveto
          endchar
        </CharString>
        <CharString name="otilde">
          -27 116 549 rmoveto
          218 callgsubr
          11 callsubr
          vlineto
          126 -433 -80 callsubr
        </CharString>
        <CharString name="p">
          -37 232 373 callgsubr
          -35 hlineto
          -23 -10 9 26 hvcurveto
          272 vlineto
          26 10 9 23 vhcurveto
          35 -93 callsubr
          -36 102 rmoveto
          317 callgsubr
          -626 90 177 vlineto
          -27 9 22 -12 31 hhcurveto
          35 hlineto
          62 152 callsubr
          311 261 callsubr
        </CharString>
        <CharString name="paragraph">
          110 287 626 rmoveto
          -145 196 callsubr
          -224 170 callgsubr
          63 -364 82 hlineto
          76 764 rmoveto
          -764 82 764 vlineto
          endchar
        </CharString>
        <CharString name="parenleft">
          -133 47 375 rmoveto
          -131 vlineto
          -268 72 -151 149 vhcurveto
          15 75 hlineto
          -13 1 rlineto
          -99 6 -34 137 198 vvcurveto
          134 vlineto
          198 34 137 99 6 vhcurveto
          13 1 rlineto
          76 -15 vlineto
          -149 -72 -152 -267 hvcurveto
          endchar
        </CharString>
        <CharString name="parenright">
          -133 215 244 rmoveto
          131 vlineto
          267 -72 152 -149 vhcurveto
          -15 -76 hlineto
          13 -1 rlineto
          99 -6 34 -137 -198 vvcurveto
          -134 vlineto
          -198 -34 -137 -99 -6 vhcurveto
          -13 -1 rlineto
          -75 15 vlineto
          149 72 151 268 hvcurveto
          endchar
        </CharString>
        <CharString name="percent">
          244 32 callsubr
          endchar
        </CharString>
        <CharString name="period">
          -232 32 hmoveto
          429 callgsubr
          endchar
        </CharString>
        <CharString name="periodcentered">
          -180 34 259 rmoveto
          101 121 -101 hlineto
          endchar
        </CharString>
        <CharString name="perthousand">
          518 32 callsubr
          382 -365 rmoveto
          51 -24 26 -54 vhcurveto
          -67 hlineto
          -54 -23 -26 -51 hvcurveto
          -184 vlineto
          -51 23 -26 54 vhcurveto
          67 hlineto
          54 24 26 51 hvcurveto
          -74 11 rmoveto
          -22 -4 -5 -23 vhcurveto
          -21 hlineto
          -23 -3 5 22 hvcurveto
          162 vlineto
          22 3 5 23 vhcurveto
          21 hlineto
          23 4 -5 -22 hvcurveto
          endchar
        </CharString>
        <CharString name="pi">
          39 434 488 rmoveto
          -367 -382 hlineto
          -24 -5 -5 -25 vhcurveto
          -35 -77 62 hlineto
          171 callgsubr
          329 116 -417 90 417 71 vlineto
          endchar
        </CharString>
        <CharString name="plus">
          11 385 350 rmoveto
          -136 151 -90 -151 -136 -74 136 -151 90 151 136 hlineto
          endchar
        </CharString>
        <CharString name="plusminus">
          23 29 171 rmoveto
          362 73 -362 hlineto
          226 182 rmoveto
          79 -90 -79 -136 -72 136 -79 90 79 136 72 vlineto
          endchar
        </CharString>
        <CharString name="product">
          39 383 590 rmoveto
          36 -316 -520 -14 callgsubr
          -30 -77 56 hlineto
          166 callgsubr
          467 135 -555 91 590 vlineto
          endchar
        </CharString>
        <CharString name="q">
          -37 158 73 -59 callsubr
          -177 90 626 vlineto
          endchar
        </CharString>
        <CharString name="question">
          -55 103 hmoveto
          429 callgsubr
          10 503 rmoveto
          -66 -27 -34 -53 hvcurveto
          -85 91 72 vlineto
          22 4 8 24 vhcurveto
          44 hlineto
          24 4 -8 -22 hvcurveto
          -161 vlineto
          -22 -4 -8 -24 vhcurveto
          -75 hlineto
          8 -131 rlineto
          76 hlineto
          4 66 rlineto
          13 hlineto
          66 27 34 53 hvcurveto
          182 vlineto
          53 -27 34 -66 vhcurveto
          endchar
        </CharString>
        <CharString name="questiondown">
          -55 219 488 rmoveto
          -101 -123 101 hlineto
          -8 -331 rmoveto
          -72 vlineto
          -22 -4 -8 -24 vhcurveto
          -44 hlineto
          -24 -4 8 22 hvcurveto
          161 vlineto
          22 4 8 24 vhcurveto
          75 hlineto
          -8 131 rlineto
          -76 hlineto
          -4 -66 rlineto
          -13 hlineto
          -66 -27 -34 -53 hvcurveto
          -182 vlineto
          -53 27 -34 66 vhcurveto
          96 hlineto
          66 27 34 53 hvcurveto
          85 vlineto
          endchar
        </CharString>
        <CharString name="quotedbl">
          -105 36 626 rmoveto
          -223 83 223 vlineto
          54 hmoveto
          -223 83 223 vlineto
          endchar
        </CharString>
        <CharString name="quotedblbase">
          -83 32 123 rmoveto
          -263 31 vlineto
          70 198 rlineto
          65 vlineto
          48 hmoveto
          -263 31 vlineto
          70 198 rlineto
          65 vlineto
          endchar
        </CharString>
        <CharString name="quotedblleft">
          -83 282 364 rmoveto
          427 callsubr
          -48 hmoveto
          427 callsubr
          endchar
        </CharString>
        <CharString name="quotedblright">
          -83 32 626 rmoveto
          428 callgsubr
          48 hmoveto
          428 callgsubr
          endchar
        </CharString>
        <CharString name="quoteleft">
          -231 133 364 rmoveto
          427 callsubr
          endchar
        </CharString>
        <CharString name="quoteright">
          -231 32 626 rmoveto
          428 callgsubr
          endchar
        </CharString>
        <CharString name="quotesinglbase">
          308 callgsubr
          endchar
        </CharString>
        <CharString name="quotesingle">
          -236 36 626 rmoveto
          -223 89 223 vlineto
          endchar
        </CharString>
        <CharString name="r">
          -159 213 489 348 callgsubr
        </CharString>
        <CharString name="racute">
          -159 285 651 75 callgsubr
          -46 342 callgsubr
        </CharString>
        <CharString name="rcaron">
          -159 189 519 19 callsubr
          46 342 callgsubr
        </CharString>
        <CharString name="registered">
          17 380 535 rmoveto
          101 -34 56 -86 vhcurveto
          -106 hlineto
          -87 -33 -56 -101 hvcurveto
          -35 vlineto
          -101 33 -53 87 vhcurveto
          106 hlineto
          86 34 53 101 hvcurveto
          -221 -115 rmoveto
          -61 -19 42 70 hvcurveto
          40 vlineto
          70 19 48 61 vhcurveto
          97 hlineto
          61 18 -48 -70 hvcurveto
          -40 vlineto
          -70 -18 -42 -61 vhcurveto
          -100 240 rmoveto
          -208 36 81 10 vlineto
          32 -81 rlineto
          38 hlineto
          -33 83 rlineto
          15 3 7 11 18 vvcurveto
          61 vlineto
          21 -11 11 -24 vhcurveto
          -2 -90 rmoveto
          -5 -1 -1 -5 vhcurveto
          -26 67 26 hlineto
          5 1 -2 -5 hvcurveto
          endchar
        </CharString>
        <CharString name="ring">
          24 316 594 rmoveto
          47 -22 23 -51 vhcurveto
          -65 hlineto
          -51 -22 -23 -47 hvcurveto
          -17 vlineto
          -47 22 -23 51 vhcurveto
          65 hlineto
          51 22 23 47 hvcurveto
          -63 5 rmoveto
          -20 -3 -5 -23 vhcurveto
          -33 hlineto
          -23 -3 5 20 hvcurveto
          7 vlineto
          20 3 5 23 vhcurveto
          33 hlineto
          23 3 -5 -20 hvcurveto
          endchar
        </CharString>
        <CharString name="s">
          -69 207 98 90 callgsubr
        </CharString>
        <CharString name="sacute">
          -69 133 519 219 callsubr
          -8 85 callsubr
        </CharString>
        <CharString name="scaron">
          -69 112 519 rmoveto
          101 hlineto
          95 132 rlineto
          -93 hlineto
          -53 -81 -52 81 rlineto
          -94 hlineto
          191 85 callsubr
        </CharString>
        <CharString name="section">
          22 248 388 rmoveto
          24 5 -6 -23 hvcurveto
          -90 -14 callgsubr
          -76 -86 callgsubr
          90 vlineto
          23 6 6 24 vhcurveto
          194 146 rmoveto
          46 249 callgsubr
          -94 196 callsubr
          -104 vlineto
          -20 4 -17 7 -14 vhcurveto
          -32 -13 -11 -33 -44 vvcurveto
          -77 482 callsubr
          67 37 callgsubr
          -82 vlineto
          -24 -5 105 callsubr
          24 hvcurveto
          35 -90 -45 482 callsubr
          94 hlineto
          65 29 31 58 hvcurveto
          103 vlineto
          20 -3 16 -7 14 vhcurveto
          31 13 10 32 43 vvcurveto
          81 vlineto
          58 -29 30 -64 vhcurveto
          -66 hlineto
          -25 -5 6 24 hvcurveto
          81 486 callsubr
          40 hlineto
          24 6 -6 -24 hvcurveto
          -35 vlineto
          endchar
        </CharString>
        <CharString name="semicolon">
          308 callgsubr
          -101 242 rmoveto
          429 callgsubr
          endchar
        </CharString>
        <CharString name="seven">
          342 callsubr
        </CharString>
        <CharString name="six">
          92 callsubr
        </CharString>
        <CharString name="slash">
          259 callgsubr
        </CharString>
        <CharString name="space">
          -252 endchar
        </CharString>
        <CharString name="sterling">
          -10 145 73 rmoveto
          23 15 3 29 37 vvcurveto
          113 131 71 -131 186 -36 callsubr
          39 hlineto
          24 5 369 callsubr
          -29 31 -64 vhcurveto
          -94 196 callsubr
          -200 -48 -71 48 -101 vlineto
          -65 -11 -29 -37 -1 vhcurveto
          -71 332 73 vlineto
          endchar
        </CharString>
        <CharString name="t">
          -178 209 415 293 callgsubr
        </CharString>
        <CharString name="tcaron">
          -178 142 571 rmoveto
          -91 -83 -46 -73 46 -327 hlineto
          -57 29 -31 65 vhcurveto
          64 77 -38 -24 callsubr
          309 67 73 -67 vlineto
          42 181 rmoveto
          -151 29 vlineto
          56 104 rlineto
          47 vlineto
          endchar
        </CharString>
        <CharString name="thorn">
          -35 230 102 rmoveto
          8 callgsubr
          -36 hlineto
          -22 -10 9 26 hvcurveto
          272 vlineto
          26 10 9 22 vhcurveto
          36 37 callgsubr
          -35 102 rmoveto
          -32 -22 -12 -27 -9 hvcurveto
          220 -89 -807 90 174 vlineto
          -25 9 23 -11 30 hhcurveto
          35 hlineto
          62 152 callsubr
          311 261 callsubr
        </CharString>
        <CharString name="three">
          70 callgsubr
        </CharString>
        <CharString name="threesuperior">
          -183 76 563 rmoveto
          12 3 4 13 vhcurveto
          21 hlineto
          13 3 -4 -12 hvcurveto
          -68 vlineto
          -12 -3 -4 -13 vhcurveto
          -31 -47 31 hlineto
          13 3 -3 -13 hvcurveto
          -70 vlineto
          -13 -3 -3 -13 vhcurveto
          -21 hlineto
          -13 -3 3 13 hvcurveto
          43 -61 -59 vlineto
          -31 17 -17 35 vhcurveto
          71 hlineto
          35 16 17 31 hvcurveto
          94 vlineto
          18 -7 11 -15 3 vhcurveto
          15 3 7 12 19 vvcurveto
          88 vlineto
          31 -16 17 -35 vhcurveto
          -71 hlineto
          -35 -17 -17 -31 hvcurveto
          -59 61 vlineto
          endchar
        </CharString>
        <CharString name="tilde">
          24 266 534 rmoveto
          11 callsubr
          15 vlineto
          218 callgsubr
          endchar
        </CharString>
        <CharString name="trademark">
          229 6 560 rmoveto
          81 -258 79 258 82 66 -242 hlineto
          495 hmoveto
          -61 -185 -62 185 rlineto
          -94 -324 71 209 hlineto
          51 -154 rlineto
          69 hlineto
          49 154 rlineto
          -209 72 324 vlineto
          endchar
        </CharString>
        <CharString name="two">
          131 callsubr
        </CharString>
        <CharString name="twosuperior">
          -195 73 563 rmoveto
          12 3 4 14 vhcurveto
          18 hlineto
          13 3 -4 -12 hvcurveto
          -18 vlineto
          -28 -3 -18 -14 -21 vhcurveto
          -93 -148 rlineto
          -48 172 51 -102 vlineto
          78 129 rlineto
          16 25 6 26 32 vvcurveto
          33 vlineto
          31 -16 17 -35 vhcurveto
          -68 hlineto
          -36 -15 -17 -31 hvcurveto
          -66 59 vlineto
          endchar
        </CharString>
        <CharString name="u">
          -32 231 488 -47 callsubr
          endchar
        </CharString>
        <CharString name="uacute">
          -32 325 651 75 callgsubr
          11 -31 -47 callsubr
          endchar
        </CharString>
        <CharString name="ucircumflex">
          -36 178 600 61 callsubr
          105 -31 -47 callsubr
          endchar
        </CharString>
        <CharString name="udieresis">
          -33 134 635 rmoveto
          -102 -94 102 hlineto
          97 -53 -47 callsubr
          -99 147 507 callgsubr
        </CharString>
        <CharString name="ugrave">
          -32 223 519 164 callgsubr
          85 -31 -47 callsubr
          endchar
        </CharString>
        <CharString name="uhungarumlaut">
          -32 262 519 146 callsubr
          88 -31 -47 callsubr
          endchar
        </CharString>
        <CharString name="umacron">
          -32 314 619 298 callsubr
          -83 -63 -47 callsubr
          endchar
        </CharString>
        <CharString name="underscore">
          77 -114 vmoveto
          474 71 -474 hlineto
          endchar
        </CharString>
        <CharString name="uni00A0">
          -252 endchar
        </CharString>
        <CharString name="uni00AD">
          468 callgsubr
        </CharString>
        <CharString name="uni00B5">
          -26 228 488 rmoveto
          -380 vlineto
          73 callsubr
          -626 90 138 36 vlineto
          31 22 12 27 9 hvcurveto
          -39 90 488 vlineto
          endchar
        </CharString>
        <CharString name="uni0122">
          -15 148 303 callsubr
          192 493 38 callgsubr
        </CharString>
        <CharString name="uni0123">
          -37 236 699 rmoveto
          -32 hlineto
          -66 -131 rlineto
          -49 98 vlineto
          -78 -440 92 callgsubr
        </CharString>
        <CharString name="uni0136">
          -13 52 hmoveto
          90 626 -90 hlineto
          96 -855 217 callsubr
          226 676 rmoveto
          392 callgsubr
        </CharString>
        <CharString name="uni0137">
          -40 44 hmoveto
          90 669 -90 hlineto
          93 -898 217 callsubr
          217 538 382 callsubr
        </CharString>
        <CharString name="uni013B">
          -96 124 -229 217 callsubr
          18 123 314 callgsubr
        </CharString>
        <CharString name="uni013C">
          -219 134 hmoveto
          484 callsubr
          -4 -50 236 callgsubr
        </CharString>
        <CharString name="uni0145">
          13 275 626 87 callsubr
          -211 -676 236 callgsubr
        </CharString>
        <CharString name="uni0146">
          -32 130 303 callsubr
          66 538 25 callsubr
        </CharString>
        <CharString name="uni0156">
          -1 151 303 callsubr
          -9 603 rmoveto
          88 -93 callsubr
          -170 42 callsubr
          -88 hlineto
          141 -70 rmoveto
          47 8 20 29 50 vvcurveto
          196 481 callgsubr
          -205 -626 90 253 49 hlineto
          94 -253 rlineto
          97 hlineto
          endchar
        </CharString>
        <CharString name="uni0157">
          -159 42 -229 217 callsubr
          171 539 348 callgsubr
        </CharString>
        <CharString name="uni015E">
          -36 232 102 -70 callsubr
          -99 -305 236 callgsubr
        </CharString>
        <CharString name="uni015F">
          -69 207 98 -67 callgsubr
          -93 -229 rmoveto
          -179 33 vlineto
          257 callsubr
          vlineto
          endchar
        </CharString>
        <CharString name="uni0162">
          -87 105 -229 217 callsubr
          -100 344 callgsubr
        </CharString>
        <CharString name="uni0163">
          -87 107 -229 217 callsubr
          -102 344 callgsubr
        </CharString>
        <CharString name="uni0218">
          -36 232 102 -70 callsubr
          -99 -305 236 callgsubr
        </CharString>
        <CharString name="uni0219">
          -69 207 98 -67 callgsubr
          -81 -229 236 callgsubr
        </CharString>
        <CharString name="uni021A">
          -87 107 303 callsubr
          -102 344 callgsubr
        </CharString>
        <CharString name="uni021B">
          -178 79 -229 217 callsubr
          130 465 293 callgsubr
        </CharString>
        <CharString name="uni02C9">
          24 76 551 399 callgsubr
        </CharString>
        <CharString name="uni0901">
          -397 -250 811 rmoveto
          175 callgsubr
          -79 -47 vlineto
          -24 -6 194 callgsubr
          vlineto
          34 46 rmoveto
          -82 79 82 vlineto
          endchar
        </CharString>
        <CharString name="uni0902">
          -397 -141 822 380 callsubr
        </CharString>
        <CharString name="uni0902.aMatraI">
          -397 22 752 257 callgsubr
        </CharString>
        <CharString name="uni0903">
          -221 46 157 429 callsubr
          -84 339 380 callsubr
        </CharString>
        <CharString name="uni0905">
          151 568 626 rmoveto
          -161 -275 -137 1 hlineto
          -96 callgsubr
          72 vlineto
          endchar
        </CharString>
        <CharString name="uni0906">
          346 762 626 rmoveto
          -355 -275 -137 1 hlineto
          -96 callgsubr
          105 371 callsubr
          endchar
        </CharString>
        <CharString name="uni0907">
          -31 311 353 callgsubr
          75 70 -406 43 callgsubr
          endchar
        </CharString>
        <CharString name="uni0908">
          -31 311 353 callgsubr
          75 70 -75 59 vlineto
          24 6 4 24 vhcurveto
          38 68 -66 hlineto
          -65 319 callsubr
          -71 -241 43 callgsubr
          endchar
        </CharString>
        <CharString name="uni09080902">
          -31 311 393 callgsubr
          -241 43 callgsubr
          158 142 75 70 -75 hlineto
          32 105 436 callsubr
        </CharString>
        <CharString name="uni0909">
          -42 373 626 rmoveto
          -393 167 callgsubr
          221 276 callsubr
          31 vvcurveto
          123 vlineto
          12 -3 9 -5 6 vhcurveto
          80 hlineto
          endchar
        </CharString>
        <CharString name="uni090A">
          105 522 626 rmoveto
          -542 167 callgsubr
          199 54 vlineto
          24 5 -5 -25 hvcurveto
          -155 -14 callgsubr
          -20 -70 48 hlineto
          64 28 28 57 hvcurveto
          180 vlineto
          62 161 callgsubr
          -123 3 hlineto
          25 2 14 16 31 vvcurveto
          123 vlineto
          12 -3 9 -5 6 vhcurveto
          229 hlineto
          endchar
        </CharString>
        <CharString name="uni090B">
          309 515 385 rmoveto
          22 4 7 24 vhcurveto
          9 hlineto
          24 4 -7 -22 hvcurveto
          -89 vlineto
          -22 -8 -7 -15 vhcurveto
          -18 hlineto
          -16 -8 9 20 hvcurveto
          -157 260 rmoveto
          368 70 -746 -70 289 -289 -9 hlineto
          511 callgsubr
          -16 callsubr
          23 -198 89 198 194 hlineto
          20 6 -3 -22 hvcurveto
          -75 vlineto
          -22 -4 -8 -22 vhcurveto
          -7 hlineto
          -22 -4 8 22 hvcurveto
          41 -90 -55 vlineto
          -50 24 -34 61 vhcurveto
          63 hlineto
          67 25 31 53 hvcurveto
          98 vlineto
          35 -13 14 -22 8 vhcurveto
          5 vlineto
          24 7 11 18 52 vvcurveto
          73 vlineto
          57 -26 31 -70 vhcurveto
          -51 hlineto
          -70 -27 -31 -57 hvcurveto
          -75 vlineto
          -24 4 -17 11 -11 vhcurveto
          -82 hlineto
          endchar
        </CharString>
        <CharString name="uni090C">
          144 495 37 rmoveto
          519 145 callsubr
          -189 90 189 486 callsubr
          60 -307 -4 hlineto
          -63 -27 -28 -57 hvcurveto
          -62 vlineto
          -57 28 -28 64 vhcurveto
          138 71 -110 417 callgsubr
          36 -79 callgsubr
          endchar
        </CharString>
        <CharString name="uni090D">
          8 267 668 rmoveto
          376 callgsubr
          -80 -56 vlineto
          -55 28 -28 66 vhcurveto
          278 -42 rmoveto
          -445 -70 72 -471 hlineto
          15 callsubr
        </CharString>
        <CharString name="uni090E">
          8 425 626 rmoveto
          -64 292 callgsubr
          -291 -70 72 -471 vlineto
          15 callsubr
        </CharString>
        <CharString name="uni090F">
          8 425 626 rmoveto
          -445 -70 72 -471 hlineto
          15 callsubr
        </CharString>
        <CharString name="uni0910">
          8 425 626 rmoveto
          -73 203 callsubr
          -279 -70 72 -471 hlineto
          15 callsubr
        </CharString>
        <CharString name="uni0911">
          346 762 626 rmoveto
          -355 -275 -137 1 hlineto
          -96 callgsubr
          105 371 callsubr
          -42 255 rmoveto
          -47 vlineto
          -24 -5 97 callsubr
        </CharString>
        <CharString name="uni0912">
          345 762 626 rmoveto
          -72 292 callgsubr
          -193 -275 -137 1 vlineto
          -96 callgsubr
          105 371 callsubr
          endchar
        </CharString>
        <CharString name="uni0913">
          345 762 626 rmoveto
          -72 203 callsubr
          -190 -275 -137 1 hlineto
          -96 callgsubr
          105 371 callsubr
          endchar
        </CharString>
        <CharString name="uni0914">
          346 762 626 rmoveto
          -74 hlineto
          -39 193 361 callsubr
          -114 hlineto
          135 -125 41 -37 27 -20 15 -11 rlinecurve
          -183 -275 -137 1 hlineto
          -96 callgsubr
          105 371 callsubr
          endchar
        </CharString>
        <CharString name="uni0915">
          151 568 488 callgsubr
          -588 -70 249 -376 vlineto
          -24 -8 -8 -24 vhcurveto
          -38 hlineto
          -23 -6 5 25 hvcurveto
          207 vlineto
          24 6 5 23 vhcurveto
          29 68 -56 hlineto
          -65 -27 -27 -58 hvcurveto
          -230 44 callsubr
        </CharString>
        <CharString name="uni0915093C">
          151 60 -72 -51 callsubr
          508 533 rmoveto
          70 -588 -70 249 -376 vlineto
          -24 -8 -8 -24 vhcurveto
          -38 hlineto
          -23 -6 5 25 hvcurveto
          207 vlineto
          24 6 5 23 vhcurveto
          29 68 -56 hlineto
          -65 -27 -27 -58 hvcurveto
          -230 44 callsubr
        </CharString>
        <CharString name="uni0915093C094D">
          -16 60 -72 -51 callsubr
          409 533 rmoveto
          70 -489 -70 249 -376 vlineto
          -107 callgsubr
          350 vlineto
          25 8 7 24 vhcurveto
          118 70 -114 hlineto
          282 callgsubr
          vlineto
          endchar
        </CharString>
        <CharString name="uni0915093C094D0915093C">
          517 85 -96 -51 callsubr
          370 -95 -51 callsubr
          140 181 rmoveto
          -104 callsubr
          -199 -10 callgsubr
          84 276 vlineto
          508 callsubr
          -954 -70 249 -376 vlineto
          -107 callgsubr
          380 4 callgsubr
          60 hlineto
          -3 -10 -2 -11 -11 vvcurveto
          -213 44 callsubr
        </CharString>
        <CharString name="uni0915093C094D0924">
          380 94 -95 -51 callsubr
          536 452 rmoveto
          -275 hlineto
          282 callgsubr
          311 vlineto
          160 callsubr
          -812 -70 249 -376 hlineto
          -107 callgsubr
          350 vlineto
          25 8 7 24 vhcurveto
          68 hlineto
          -1 -5 0 -5 -5 vvcurveto
          -282 361 callgsubr
          93 -382 352 callsubr
        </CharString>
        <CharString name="uni0915093C094D092B">
          530 94 -95 -51 callsubr
          514 36 callsubr
          -253 251 callgsubr
          100 -104 vlineto
          528 104 rmoveto
          70 -967 -70 249 -376 vlineto
          -107 callgsubr
          350 vlineto
          25 8 7 24 vhcurveto
          68 -215 hlineto
          -61 30 -28 60 vhcurveto
          63 hlineto
          17 11 3 8 8 hvcurveto
          -89 -97 callgsubr
        </CharString>
        <CharString name="uni0915093C094D092B093C">
          530 97 -95 -51 callsubr
          383 -95 -51 callsubr
          128 36 callsubr
          -253 251 callgsubr
          100 -104 vlineto
          528 104 rmoveto
          70 -967 -70 249 -376 vlineto
          -107 callgsubr
          350 vlineto
          25 8 7 24 vhcurveto
          68 -215 hlineto
          -61 30 -28 60 vhcurveto
          63 hlineto
          17 11 3 8 8 hvcurveto
          -89 -97 callgsubr
        </CharString>
        <CharString name="uni0915093C094D092C">
          398 94 -95 -51 callsubr
          444 414 rmoveto
          75 68 -258 -10 callgsubr
          84 334 -231 vlineto
          -89 6 -39 126 callgsubr
          -70 -145 rmoveto
          -24 -5 -48 callgsubr
          -4 -4 0 -4 hhcurveto
          190 478 rmoveto
          -835 -70 249 -376 hlineto
          -107 callgsubr
          380 4 callgsubr
          67 hlineto
          152 callgsubr
          230 callsubr
          59 vhcurveto
          114 344 callsubr
        </CharString>
        <CharString name="uni0915093C094D092E">
          549 94 -95 -51 callsubr
          710 217 callgsubr
          -354 rmoveto
          185 callsubr
          -44 -5 callsubr
          6 5 23 vhcurveto
          75 hlineto
          -289 194 rmoveto
          289 -124 -253 333 callsubr
          647 205 rmoveto
          -986 -70 249 -376 hlineto
          -107 callgsubr
          330 416 callgsubr
          68 hlineto
          152 callgsubr
          -156 vlineto
          404 callsubr
          88 289 callgsubr
        </CharString>
        <CharString name="uni0915093C094D0930">
          151 172 -143 -51 callsubr
          396 604 rmoveto
          70 -588 13 callsubr
          380 4 callgsubr
          37 26 callsubr
          -179 118 callsubr
          202 288 callgsubr
        </CharString>
        <CharString name="uni0915093C094D0930094D">
          49 177 -139 -51 callsubr
          317 600 rmoveto
          70 -514 13 callsubr
          350 4 callgsubr
          143 70 -139 hlineto
          282 callgsubr
          vlineto
          endchar
        </CharString>
        <CharString name="uni0915094D">
          -16 469 488 callgsubr
          -489 -70 249 -376 vlineto
          -107 callgsubr
          350 vlineto
          25 8 7 24 vhcurveto
          118 70 -114 hlineto
          282 callgsubr
          vlineto
          endchar
        </CharString>
        <CharString name="uni0915094D0915">
          517 595 180 rmoveto
          -104 callsubr
          -199 -10 callgsubr
          84 276 vlineto
          508 callsubr
          -954 -70 249 -376 vlineto
          -107 callgsubr
          380 4 callgsubr
          60 hlineto
          -3 -10 -2 -11 -11 vvcurveto
          -213 44 callsubr
        </CharString>
        <CharString name="uni0915094D0916">
          631 571 345 rmoveto
          -30 callgsubr
          -31 139 -153 hlineto
          282 callgsubr
          220 480 callgsubr
          477 102 rmoveto
          -1068 -70 249 -376 hlineto
          -107 callgsubr
          350 vlineto
          25 8 7 24 vhcurveto
          67 -295 hlineto
          -60 31 -27 69 vhcurveto
          242 73 -221 hlineto
          -25 280 callsubr
          28 -36 callgsubr
          236 -339 hlineto
          -27 -10 -9 -27 vhcurveto
          -31 248 callgsubr
          164 vlineto
          24 6 5 23 79 callsubr
          -187 vlineto
          388 callsubr
          54 hlineto
          20 12 4 10 8 hvcurveto
          -124 87 -101 callgsubr
        </CharString>
        <CharString name="uni0915094D091A">
          365 620 180 rmoveto
          -24 -8 -8 -24 vhcurveto
          -53 -94 callsubr
          174 vlineto
          28 7 2 35 vhcurveto
          24 70 -217 hlineto
          282 callgsubr
          301 vlineto
          160 callsubr
          -802 -70 249 -376 hlineto
          -107 callgsubr
          350 vlineto
          25 8 7 24 vhcurveto
          74 334 callgsubr
          -183 vlineto
          388 callsubr
          79 -68 callgsubr
        </CharString>
        <CharString name="uni0915094D091C">
          517 772 482 rmoveto
          -174 -304 hlineto
          476 callgsubr
          304 -153 vlineto
          -17 -11 -3 -7 -8 hvcurveto
          84 453 vlineto
          160 callsubr
          -954 -70 249 -376 hlineto
          -107 callgsubr
          380 4 callgsubr
          67 -245 140 callgsubr
        </CharString>
        <CharString name="uni0915094D091F">
          343 319 556 rmoveto
          273 -74 -237 -10 callgsubr
          364 -60 rmoveto
          144 77 70 -780 -70 249 -376 vlineto
          -107 callgsubr
          380 4 callgsubr
          68 hlineto
          152 callgsubr
          20 callsubr
        </CharString>
        <CharString name="uni0915094D0923">
          521 600 178 rmoveto
          476 callgsubr
          378 90 vlineto
          -245 251 callgsubr
          101 -104 vlineto
          518 174 rmoveto
          -958 -70 249 -376 hlineto
          -107 callgsubr
          350 vlineto
          25 8 7 24 vhcurveto
          69 -215 148 callgsubr
          86 308 callsubr
        </CharString>
</ttFont>
